<svg width="333" height="192" viewBox="0 0 333 192" fill="none" xmlns="http://www.w3.org/2000/svg">
<g clip-path="url(#clip0)">
<path d="M72.1519 169.946C81.7163 169.946 89.4698 162.187 89.4698 152.617C89.4698 143.046 81.7163 135.288 72.1519 135.288C62.5875 135.288 54.834 143.046 54.834 152.617C54.834 162.187 62.5875 169.946 72.1519 169.946Z" fill="#F2F2F2"/>
<path d="M74.9678 167.409C84.5322 167.409 92.2857 159.651 92.2857 150.081C92.2857 140.51 84.5322 132.752 74.9678 132.752C65.4034 132.752 57.6499 140.51 57.6499 150.081C57.6499 159.651 65.4034 167.409 74.9678 167.409Z" fill="#F9A826"/>
<path d="M303.184 130.907H88.9147V131.492H303.184V130.907Z" fill="#3F3D56"/>
<path d="M199.885 5.45569H123.833V3.88721H89.3476V5.45569H12.9819C12.3063 5.45569 11.6374 5.58884 11.0132 5.84753C10.3891 6.10622 9.82197 6.48538 9.34427 6.96338C8.86657 7.44138 8.48764 8.00884 8.22911 8.63338C7.97059 9.25791 7.83752 9.92728 7.83752 10.6033V114.807C7.83752 116.173 8.37952 117.482 9.34427 118.447C10.309 119.413 11.6175 119.955 12.9819 119.955H199.885C201.249 119.955 202.558 119.413 203.522 118.447C204.487 117.482 205.029 116.173 205.029 114.807V10.6033C205.029 9.92728 204.896 9.25791 204.638 8.63338C204.379 8.00884 204 7.44138 203.522 6.96338C203.045 6.48538 202.478 6.10622 201.854 5.84753C201.229 5.58884 200.56 5.45569 199.885 5.45569Z" fill="#3F3D56"/>
<path d="M198.132 14.553H14.7345V118.073H198.132V14.553Z" fill="#F9A826"/>
<path d="M106.277 11.7297C107.315 11.7297 108.158 10.887 108.158 9.84751C108.158 8.80801 107.315 7.96533 106.277 7.96533C105.238 7.96533 104.396 8.80801 104.396 9.84751C104.396 10.887 105.238 11.7297 106.277 11.7297Z" fill="#F9A826"/>
<path opacity="0.1" d="M145.684 118.073H14.7346V14.553L145.684 118.073Z" fill="black"/>
<path d="M43.4307 110.326C53.1668 110.326 61.0595 102.429 61.0595 92.6867C61.0595 82.9445 53.1668 75.0469 43.4307 75.0469C33.6947 75.0469 25.802 82.9445 25.802 92.6867C25.802 102.429 33.6947 110.326 43.4307 110.326Z" fill="#F2F2F2"/>
<path d="M166.2 70.3821H149.068V73.964H166.2V70.3821Z" fill="#3F3D56"/>
<path d="M186.911 42.4944H128.357V44.0295H186.911V42.4944Z" fill="#3F3D56"/>
<path d="M186.911 47.3555H128.357V48.8906H186.911V47.3555Z" fill="#3F3D56"/>
<path d="M186.911 52.2166H128.357V53.7517H186.911V52.2166Z" fill="#3F3D56"/>
<path d="M186.911 57.0779H128.357V58.613H186.911V57.0779Z" fill="#3F3D56"/>
<path d="M186.911 61.939H128.357V63.4741H186.911V61.939Z" fill="#3F3D56"/>
<path d="M186.911 16.6533H179.751V23.8172H186.911V16.6533Z" fill="#F2F2F2"/>
<path d="M190.235 27.1431H181.541V18.4441H190.235V27.1431ZM181.919 26.7649H189.857V18.8223H181.919V26.7649Z" fill="#3F3D56"/>
<path d="M210.179 116.191H192.28V114.9C192.28 114.867 192.274 114.834 192.261 114.802C192.248 114.771 192.229 114.743 192.205 114.719C192.182 114.696 192.153 114.677 192.122 114.664C192.091 114.651 192.058 114.645 192.025 114.645H185.888C185.854 114.645 185.821 114.651 185.79 114.664C185.759 114.677 185.731 114.696 185.707 114.719C185.683 114.743 185.665 114.771 185.652 114.802C185.639 114.834 185.632 114.867 185.632 114.9V116.191H181.797V114.9C181.797 114.867 181.79 114.834 181.777 114.802C181.765 114.771 181.746 114.743 181.722 114.719C181.698 114.696 181.67 114.677 181.639 114.664C181.608 114.651 181.575 114.645 181.541 114.645H175.405C175.371 114.645 175.338 114.651 175.307 114.664C175.276 114.677 175.247 114.696 175.224 114.719C175.2 114.743 175.181 114.771 175.168 114.802C175.155 114.834 175.149 114.867 175.149 114.9V116.191H171.313V114.9C171.313 114.867 171.307 114.834 171.294 114.802C171.281 114.771 171.262 114.743 171.239 114.719C171.215 114.696 171.187 114.677 171.156 114.664C171.125 114.651 171.091 114.645 171.058 114.645H164.921C164.888 114.645 164.854 114.651 164.823 114.664C164.792 114.677 164.764 114.696 164.74 114.719C164.717 114.743 164.698 114.771 164.685 114.802C164.672 114.834 164.666 114.867 164.666 114.9V116.191H160.83V114.9C160.83 114.867 160.824 114.834 160.811 114.802C160.798 114.771 160.779 114.743 160.755 114.719C160.731 114.696 160.703 114.677 160.672 114.664C160.641 114.651 160.608 114.645 160.574 114.645H154.438C154.404 114.645 154.371 114.651 154.34 114.664C154.309 114.677 154.281 114.696 154.257 114.719C154.233 114.743 154.214 114.771 154.202 114.802C154.189 114.834 154.182 114.867 154.182 114.9V116.191H150.347V114.9C150.347 114.867 150.34 114.834 150.327 114.802C150.314 114.771 150.296 114.743 150.272 114.719C150.248 114.696 150.22 114.677 150.189 114.664C150.158 114.651 150.125 114.645 150.091 114.645H143.954C143.921 114.645 143.888 114.651 143.857 114.664C143.826 114.677 143.797 114.696 143.774 114.719C143.75 114.743 143.731 114.771 143.718 114.802C143.705 114.834 143.699 114.867 143.699 114.9V116.191H139.863V114.9C139.863 114.867 139.857 114.834 139.844 114.802C139.831 114.771 139.812 114.743 139.789 114.719C139.765 114.696 139.737 114.677 139.706 114.664C139.675 114.651 139.641 114.645 139.608 114.645H133.471C133.438 114.645 133.404 114.651 133.373 114.664C133.342 114.677 133.314 114.696 133.29 114.719C133.267 114.743 133.248 114.771 133.235 114.802C133.222 114.834 133.215 114.867 133.215 114.9V116.191H129.38V114.9C129.38 114.867 129.373 114.834 129.361 114.802C129.348 114.771 129.329 114.743 129.305 114.719C129.281 114.696 129.253 114.677 129.222 114.664C129.191 114.651 129.158 114.645 129.124 114.645H81.0543C81.0207 114.645 80.9875 114.651 80.9564 114.664C80.9254 114.677 80.8972 114.696 80.8735 114.719C80.8497 114.743 80.8309 114.771 80.8181 114.802C80.8052 114.834 80.7986 114.867 80.7986 114.9V116.191H76.9632V114.9C76.9632 114.867 76.9566 114.834 76.9438 114.802C76.9309 114.771 76.9121 114.743 76.8883 114.719C76.8646 114.696 76.8364 114.677 76.8054 114.664C76.7744 114.651 76.7411 114.645 76.7075 114.645H70.5709C70.5374 114.645 70.5041 114.651 70.4731 114.664C70.4421 114.677 70.4139 114.696 70.3901 114.719C70.3664 114.743 70.3475 114.771 70.3347 114.802C70.3218 114.834 70.3152 114.867 70.3152 114.9V116.191H66.4799V114.9C66.4799 114.867 66.4732 114.834 66.4604 114.802C66.4475 114.771 66.4287 114.743 66.405 114.719C66.3812 114.696 66.353 114.677 66.322 114.664C66.291 114.651 66.2577 114.645 66.2242 114.645H60.0876C60.054 114.645 60.0207 114.651 59.9897 114.664C59.9587 114.677 59.9305 114.696 59.9068 114.719C59.883 114.743 59.8642 114.771 59.8513 114.802C59.8385 114.834 59.8319 114.867 59.8319 114.9V116.191H55.9965V114.9C55.9965 114.867 55.9899 114.834 55.977 114.802C55.9642 114.771 55.9454 114.743 55.9216 114.719C55.8979 114.696 55.8697 114.677 55.8387 114.664C55.8076 114.651 55.7744 114.645 55.7408 114.645H49.6042C49.5706 114.645 49.5374 114.651 49.5064 114.664C49.4753 114.677 49.4471 114.696 49.4234 114.719C49.3997 114.743 49.3808 114.771 49.368 114.802C49.3551 114.834 49.3485 114.867 49.3485 114.9V116.191H45.5131V114.9C45.5131 114.867 45.5065 114.834 45.4937 114.802C45.4808 114.771 45.462 114.743 45.4383 114.719C45.4145 114.696 45.3863 114.677 45.3553 114.664C45.3243 114.651 45.291 114.645 45.2575 114.645H39.1208C39.0873 114.645 39.054 114.651 39.023 114.664C38.992 114.677 38.9638 114.696 38.94 114.719C38.9163 114.743 38.8975 114.771 38.8846 114.802C38.8718 114.834 38.8651 114.867 38.8652 114.9V116.191H35.0298V114.9C35.0298 114.867 35.0232 114.834 35.0103 114.802C34.9975 114.771 34.9786 114.743 34.9549 114.719C34.9311 114.696 34.903 114.677 34.8719 114.664C34.8409 114.651 34.8077 114.645 34.7741 114.645H28.6375C28.6039 114.645 28.5707 114.651 28.5396 114.664C28.5086 114.677 28.4804 114.696 28.4567 114.719C28.4329 114.743 28.4141 114.771 28.4012 114.802C28.3884 114.834 28.3818 114.867 28.3818 114.9V116.191H24.5464V114.9C24.5464 114.867 24.5398 114.834 24.527 114.802C24.5141 114.771 24.4953 114.743 24.4715 114.719C24.4478 114.696 24.4196 114.677 24.3886 114.664C24.3575 114.651 24.3243 114.645 24.2907 114.645H18.1541C18.1205 114.645 18.0873 114.651 18.0563 114.664C18.0252 114.677 17.9971 114.696 17.9733 114.719C17.9496 114.743 17.9307 114.771 17.9179 114.802C17.905 114.834 17.8984 114.867 17.8984 114.9V116.191H6.1366C4.50908 116.191 2.94821 116.838 1.79737 117.989C0.646535 119.141 1.55055e-06 120.703 0 122.331V125.108C4.65164e-06 126.736 0.64654 128.298 1.79738 129.45C2.94821 130.601 4.50908 131.248 6.1366 131.248H210.179C211.806 131.248 213.367 130.601 214.518 129.45C215.669 128.298 216.315 126.736 216.315 125.108V122.331C216.315 120.703 215.669 119.141 214.518 117.989C213.367 116.838 211.806 116.191 210.179 116.191Z" fill="#3F3D56"/>
<path d="M47.6979 103.704C43.3039 103.704 39.0086 102.401 35.3552 99.9579C31.7018 97.5152 28.8543 94.0433 27.1728 89.9813C25.4913 85.9193 25.0514 81.4496 25.9086 77.1374C26.7658 72.8251 28.8817 68.8641 31.9887 65.7552C35.0956 62.6463 39.0542 60.529 43.3637 59.6713C47.6732 58.8135 52.1401 59.2538 56.1996 60.9363C60.2591 62.6189 63.7288 65.4681 66.1699 69.1239C68.6111 72.7796 69.914 77.0775 69.914 81.4742C69.9073 87.368 67.5646 93.0184 63.3997 97.1859C59.2348 101.353 53.5879 103.698 47.6979 103.704ZM47.6979 59.8292C43.4195 59.8292 39.2373 61.0986 35.68 63.477C32.1227 65.8554 29.3502 69.2359 27.7129 73.191C26.0757 77.1461 25.6473 81.4982 26.482 85.697C27.3166 89.8957 29.3768 93.7525 32.4021 96.7796C35.4273 99.8067 39.2817 101.868 43.4778 102.703C47.6739 103.539 52.0232 103.11 55.9759 101.472C59.9285 99.8334 63.3069 97.0591 65.6838 93.4996C68.0607 89.9401 69.3294 85.7552 69.3294 81.4742C69.3229 75.7356 67.0418 70.2338 62.9865 66.176C58.9312 62.1182 53.4329 59.8356 47.6979 59.8292Z" fill="#3F3D56"/>
<path d="M245.889 9.51904H171.348V10.104H245.889V9.51904Z" fill="#3F3D56"/>
<path d="M333 163.959H118.731V164.544H333V163.959Z" fill="#3F3D56"/>
<path d="M130.862 190.87H56.3213V191.455H130.862V190.87Z" fill="#3F3D56"/>
<path d="M145.867 160.875H137.682V169.066H145.867V160.875Z" fill="#F9A826"/>
<path d="M150.836 164.385H140.897V154.44H150.836V164.385ZM141.329 163.953H150.404V154.873H141.329V163.953Z" fill="#3F3D56"/>
<path d="M240.87 6.43506H232.685V14.6251H240.87V6.43506Z" fill="#F9A826"/>
<path d="M245.839 9.94503H235.901V0H245.839V9.94503ZM236.333 9.51264H245.407V0.432394H236.333V9.51264Z" fill="#3F3D56"/>
<path d="M323.304 160.875H315.119V169.066H323.304V160.875Z" fill="#F9A826"/>
<path d="M328.273 164.385H318.334V154.44H328.273V164.385ZM318.766 163.953H327.841V154.873H318.766V163.953Z" fill="#3F3D56"/>
<path d="M309.03 67.848H308.335V48.7881C308.335 47.3395 308.05 45.905 307.496 44.5666C306.942 43.2283 306.129 42.0122 305.106 40.9878C304.082 39.9635 302.867 39.1509 301.529 38.5965C300.192 38.0422 298.758 37.7568 297.31 37.7568H256.955C255.507 37.7568 254.074 38.0422 252.736 38.5965C251.398 39.1509 250.183 39.9635 249.159 40.9878C248.136 42.0122 247.324 43.2283 246.77 44.5666C246.216 45.905 245.93 47.3395 245.93 48.7881V153.352C245.93 154.8 246.216 156.235 246.77 157.573C247.324 158.912 248.136 160.128 249.159 161.152C250.183 162.177 251.398 162.989 252.736 163.543C254.074 164.098 255.507 164.383 256.955 164.383H297.31C298.758 164.383 300.192 164.098 301.529 163.543C302.867 162.989 304.082 162.176 305.106 161.152C306.129 160.128 306.942 158.912 307.496 157.573C308.05 156.235 308.335 154.8 308.335 153.352V81.4151H309.03V67.848Z" fill="#3F3D56"/>
<path d="M305.987 49.4365V153.848C305.987 156.033 305.12 158.128 303.577 159.673C302.033 161.219 299.939 162.087 297.755 162.087H257.205C255.022 162.087 252.928 161.219 251.384 159.673C249.84 158.128 248.973 156.033 248.973 153.848V49.4365C248.974 47.2521 249.841 45.1571 251.385 43.6125C252.928 42.0678 255.022 41.1999 257.205 41.1997H262.125C261.883 41.794 261.79 42.4387 261.856 43.077C261.921 43.7154 262.143 44.3279 262.501 44.8604C262.858 45.393 263.342 45.8294 263.908 46.1311C264.474 46.4328 265.105 46.5905 265.747 46.5905H288.866C289.507 46.5905 290.139 46.4328 290.705 46.1311C291.271 45.8294 291.754 45.393 292.112 44.8605C292.47 44.3279 292.691 43.7154 292.757 43.077C292.822 42.4387 292.73 41.794 292.488 41.1997H297.755C299.938 41.1999 302.032 42.0678 303.576 43.6125C305.119 45.1571 305.987 47.2521 305.987 49.4365Z" fill="#F9A826"/>
<path d="M283.52 110.044H271.44V113.626H283.52V110.044Z" fill="#3F3D56"/>
<path d="M298.124 82.1562H256.837V83.6914H298.124V82.1562Z" fill="#3F3D56"/>
<path d="M298.124 87.0176H256.837V88.5527H298.124V87.0176Z" fill="#3F3D56"/>
<path d="M298.124 91.8784H256.837V93.4135H298.124V91.8784Z" fill="#3F3D56"/>
<path d="M298.124 96.7397H256.837V98.2749H298.124V96.7397Z" fill="#3F3D56"/>
<path d="M298.124 101.601H256.837V103.136H298.124V101.601Z" fill="#3F3D56"/>
<path d="M278.922 61.77H271.763V68.9339H278.922V61.77Z" fill="#F2F2F2"/>
<path d="M274.504 63.5615V72.2605H283.197V63.5615H274.504ZM282.82 71.8832H274.881V63.9389H282.82V71.8832Z" fill="#3F3D56"/>
<path opacity="0.1" d="M305.987 142.697V153.848C305.987 156.033 305.12 158.128 303.577 159.673C302.033 161.219 299.939 162.087 297.755 162.087H257.205C255.022 162.087 252.928 161.219 251.384 159.673C249.84 158.128 248.973 156.033 248.973 153.848V97.626L283.137 124.633L283.721 125.095L290.076 130.117L290.67 130.588L305.987 142.697Z" fill="black"/>
<path d="M273.972 158.704C281.055 158.704 286.796 152.959 286.796 145.872C286.796 138.786 281.055 133.041 273.972 133.041C266.89 133.041 261.149 138.786 261.149 145.872C261.149 152.959 266.89 158.704 273.972 158.704Z" fill="#F2F2F2"/>
<path d="M93.5918 191.455C88.5619 191.455 83.645 189.962 79.4627 187.166C75.2805 184.37 72.0209 180.395 70.096 175.746C68.1712 171.096 67.6675 165.979 68.6488 161.043C69.6301 156.106 72.0522 151.572 75.6089 148.013C79.1656 144.454 83.6971 142.03 88.6303 141.049C93.5636 140.067 98.6771 140.571 103.324 142.497C107.971 144.423 111.943 147.684 114.737 151.869C117.532 156.054 119.023 160.974 119.023 166.007C119.016 172.754 116.334 179.222 111.566 183.993C106.799 188.764 100.334 191.447 93.5918 191.455ZM93.5918 141.145C88.6775 141.145 83.8736 142.603 79.7876 145.335C75.7015 148.067 72.5168 151.95 70.6362 156.493C68.7556 161.036 68.2635 166.035 69.2222 170.858C70.181 175.68 72.5474 180.111 76.0223 183.588C79.4972 187.065 83.9246 189.433 88.7444 190.392C93.5643 191.351 98.5602 190.859 103.1 188.977C107.641 187.095 111.521 183.909 114.251 179.82C116.982 175.731 118.439 170.925 118.439 166.007C118.431 159.415 115.811 153.096 111.153 148.435C106.495 143.774 100.179 141.152 93.5918 141.145Z" fill="#3F3D56"/>
<path d="M277.752 155.769C274.572 155.769 271.464 154.826 268.82 153.058C266.176 151.29 264.115 148.778 262.898 145.838C261.682 142.899 261.363 139.664 261.983 136.543C262.604 133.423 264.135 130.556 266.384 128.306C268.632 126.056 271.497 124.524 274.615 123.903C277.734 123.283 280.967 123.601 283.905 124.819C286.842 126.036 289.353 128.098 291.12 130.744C292.887 133.39 293.83 136.5 293.83 139.682C293.825 143.947 292.129 148.036 289.115 151.052C286.101 154.068 282.015 155.765 277.752 155.769ZM277.752 124.179C274.688 124.179 271.692 125.088 269.145 126.792C266.597 128.495 264.611 130.917 263.439 133.749C262.266 136.582 261.959 139.699 262.557 142.706C263.155 145.713 264.63 148.476 266.797 150.644C268.964 152.812 271.724 154.288 274.73 154.886C277.735 155.485 280.85 155.178 283.681 154.004C286.512 152.831 288.931 150.844 290.634 148.295C292.336 145.745 293.245 142.748 293.245 139.682C293.24 135.572 291.607 131.631 288.702 128.725C285.798 125.819 281.86 124.184 277.752 124.179Z" fill="#3F3D56"/>
</g>
<defs>
<clipPath id="clip0">
<rect width="333" height="191.455" fill="white"/>
</clipPath>
</defs>
</svg>
