<svg width="491" height="224" viewBox="0 0 491 224" fill="none" xmlns="http://www.w3.org/2000/svg">
<g clip-path="url(#clip0)">
<path d="M62.7572 220.094L61.9161 219.905C71.2938 178.201 94.8607 140.331 128.275 113.269C153.538 92.8413 183.584 79.1791 215.585 73.5689C247.585 67.9587 280.487 70.5851 311.192 81.2007C341.897 91.8163 369.395 110.072 391.097 134.248C412.8 158.425 427.992 187.727 435.243 219.396L434.403 219.587C414.552 132.427 338.163 71.5527 248.638 71.5527C160.285 71.5527 82.1115 134.023 62.7572 220.094Z" fill="#3F3D56"/>
<path d="M388.353 118.199C401.283 118.199 411.765 107.717 411.765 94.7871C411.765 81.8569 401.283 71.375 388.353 71.375C375.423 71.375 364.941 81.8569 364.941 94.7871C364.941 107.717 375.423 118.199 388.353 118.199Z" fill="#FF6584"/>
<path d="M379.459 188.389H378.597V222.442H379.459V188.389Z" fill="#3F3D56"/>
<path d="M387.415 192.729C387.47 204.636 379.092 214.328 379.092 214.328C379.092 214.328 370.626 204.714 370.571 192.807C370.516 180.9 378.894 171.208 378.894 171.208C378.894 171.208 387.36 180.822 387.415 192.729Z" fill="#6C63FF"/>
<path opacity="0.1" d="M387.415 192.729C387.47 204.636 379.092 214.328 379.092 214.328C379.092 214.328 370.626 204.714 370.571 192.807C370.516 180.9 378.894 171.208 378.894 171.208C378.894 171.208 387.36 180.822 387.415 192.729Z" fill="black"/>
<path opacity="0.4" d="M216.535 120.687C223.973 120.687 230.004 114.657 230.004 107.218C230.004 99.7794 223.973 93.749 216.535 93.749C209.096 93.749 203.065 99.7794 203.065 107.218C203.065 114.657 209.096 120.687 216.535 120.687Z" fill="#6C63FF"/>
<path opacity="0.4" d="M191.607 123.1C196.825 123.1 201.055 118.869 201.055 113.651C201.055 108.433 196.825 104.203 191.607 104.203C186.388 104.203 182.158 108.433 182.158 113.651C182.158 118.869 186.388 123.1 191.607 123.1Z" fill="#6C63FF"/>
<path opacity="0.4" d="M90.3118 150.255C95.53 150.255 99.7603 146.025 99.7603 140.807C99.7603 135.588 95.53 131.358 90.3118 131.358C85.0935 131.358 80.8633 135.588 80.8633 140.807C80.8633 146.025 85.0935 150.255 90.3118 150.255Z" fill="#6C63FF"/>
<path opacity="0.4" d="M369.679 119.579C377.118 119.579 383.148 113.549 383.148 106.11C383.148 98.6712 377.118 92.6409 369.679 92.6409C362.24 92.6409 356.21 98.6712 356.21 106.11C356.21 113.549 362.24 119.579 369.679 119.579Z" fill="#6C63FF"/>
<path d="M24.9836 218.655C25.7137 221.354 28.2147 223.026 28.2147 223.026C28.2147 223.026 29.5318 220.322 28.8017 217.622C28.0715 214.923 25.5705 213.252 25.5705 213.252C25.5705 213.252 24.2534 215.956 24.9836 218.655Z" fill="#3F3D56"/>
<path d="M26.0566 218.075C28.0602 220.026 28.3049 223.024 28.3049 223.024C28.3049 223.024 25.3012 222.86 23.2976 220.91C21.2941 218.959 21.0493 215.961 21.0493 215.961C21.0493 215.961 24.053 216.125 26.0566 218.075Z" fill="#6C63FF"/>
<path d="M288.781 218.655C289.511 221.354 292.012 223.026 292.012 223.026C292.012 223.026 293.329 220.322 292.599 217.622C291.869 214.923 289.368 213.252 289.368 213.252C289.368 213.252 288.051 215.956 288.781 218.655Z" fill="#3F3D56"/>
<path d="M289.854 218.075C291.857 220.026 292.102 223.024 292.102 223.024C292.102 223.024 289.098 222.86 287.095 220.91C285.091 218.959 284.846 215.961 284.846 215.961C284.846 215.961 287.85 216.125 289.854 218.075Z" fill="#6C63FF"/>
<path d="M29.9434 198.367L28.1602 195.395L44.8044 181.128H87.6042V185.289L72.1488 201.933L54.3153 205.5L29.9434 198.367Z" fill="#3F3D56"/>
<path d="M94.9715 189.5V180.199H89.3679V183.132L87.6041 181.128L73.3375 195.394L70.9595 197.772L67.9874 209.661L73.3375 222.738H100.681V195.989L94.9715 189.5Z" fill="#CCCCCC"/>
<path d="M73.3375 195.394H28.1602V222.739H73.3375V195.394Z" fill="#F2F2F2"/>
<path d="M67.0958 204.014H57.5848V212.336H67.0958V204.014Z" fill="#3F3D56"/>
<path d="M53.7209 203.716H45.3988V222.738H53.7209V203.716Z" fill="#CCCCCC"/>
<path d="M35.8877 206.689V203.717H32.3213V206.689H35.5903H35.8877Z" fill="#3F3D56"/>
<path d="M35.5903 209.066H32.3213V212.039H35.8877V209.066H35.5903Z" fill="#3F3D56"/>
<path d="M41.8322 203.716H38.2656V206.689H41.8322V203.716Z" fill="#3F3D56"/>
<path d="M41.8322 209.066H38.2656V212.039H41.8322V209.066Z" fill="#3F3D56"/>
<path d="M86.1179 206.986V204.013H82.551V206.986H85.8205H86.1179Z" fill="#3F3D56"/>
<path d="M85.8205 209.364H82.551V212.336H86.1179V209.364H85.8205Z" fill="#3F3D56"/>
<path d="M92.0622 204.014H88.4956V206.986H92.0622V204.014Z" fill="#3F3D56"/>
<path d="M92.0622 209.364H88.4956V212.336H92.0622V209.364Z" fill="#3F3D56"/>
<path d="M201.929 198.367L200.146 195.395L216.79 181.128H259.59V185.289L244.134 201.933L226.301 205.5L201.929 198.367Z" fill="#3F3D56"/>
<path d="M266.957 189.5V180.199H261.353V183.132L259.59 181.128L245.323 195.394L242.945 197.772L239.973 209.661L245.323 222.738H272.667V195.989L266.957 189.5Z" fill="#CCCCCC"/>
<path d="M245.323 195.394H200.146V222.739H245.323V195.394Z" fill="#F2F2F2"/>
<path d="M239.081 204.014H229.57V212.336H239.081V204.014Z" fill="#3F3D56"/>
<path d="M225.706 203.716H217.384V222.738H225.706V203.716Z" fill="#CCCCCC"/>
<path d="M207.873 206.689V203.717H204.307V206.689H207.576H207.873Z" fill="#3F3D56"/>
<path d="M207.576 209.066H204.307V212.039H207.873V209.066H207.576Z" fill="#3F3D56"/>
<path d="M213.817 203.716H210.251V206.689H213.817V203.716Z" fill="#3F3D56"/>
<path d="M213.817 209.066H210.251V212.039H213.817V209.066Z" fill="#3F3D56"/>
<path d="M258.103 206.986V204.013H254.536V206.986H257.806H258.103Z" fill="#3F3D56"/>
<path d="M257.806 209.364H254.536V212.336H258.103V209.364H257.806Z" fill="#3F3D56"/>
<path d="M264.048 204.014H260.481V206.986H264.048V204.014Z" fill="#3F3D56"/>
<path d="M264.048 209.364H260.481V212.336H264.048V209.364Z" fill="#3F3D56"/>
<path d="M121.487 148.434L118.515 146.056L135.159 131.195H177.364V144.273L150.02 162.7L121.487 148.434Z" fill="#3F3D56"/>
<path d="M185.059 139.531V131.492H179.456V133.461L177.364 131.195L163.692 146.056L158.342 149.623L150.047 210.228L162.557 222.738H191.631V146.65L185.059 139.531Z" fill="#CCCCCC"/>
<path d="M163.692 146.056H118.515V222.739H163.692V146.056Z" fill="#F2F2F2"/>
<path d="M144.373 204.014H136.051V222.739H144.373V204.014Z" fill="#CCCCCC"/>
<path d="M127.134 209.364V206.392H123.568V209.364H126.837H127.134Z" fill="#3F3D56"/>
<path d="M126.837 211.741H123.568V214.714H127.134V211.741H126.837Z" fill="#3F3D56"/>
<path d="M133.078 206.391H129.512V209.364H133.078V206.391Z" fill="#3F3D56"/>
<path d="M133.078 211.741H129.512V214.714H133.078V211.741Z" fill="#3F3D56"/>
<path d="M151.506 209.364V206.392H147.94V209.364H151.209H151.506Z" fill="#3F3D56"/>
<path d="M151.209 211.741H147.94V214.714H151.506V211.741H151.209Z" fill="#3F3D56"/>
<path d="M157.45 206.391H153.884V209.364H157.45V206.391Z" fill="#3F3D56"/>
<path d="M157.45 211.741H153.884V214.714H157.45V211.741Z" fill="#3F3D56"/>
<path d="M176.472 149.92V146.948H172.906V149.92H176.175H176.472Z" fill="#3F3D56"/>
<path d="M176.175 152.298H172.906V155.27H176.472V152.298H176.175Z" fill="#3F3D56"/>
<path d="M182.417 146.948H178.85V149.92H182.417V146.948Z" fill="#3F3D56"/>
<path d="M182.417 152.297H178.85V155.27H182.417V152.297Z" fill="#3F3D56"/>
<path d="M176.472 166.564V163.592H172.906V166.564H176.175H176.472Z" fill="#3F3D56"/>
<path d="M176.175 168.942H172.906V171.914H176.472V168.942H176.175Z" fill="#3F3D56"/>
<path d="M182.417 163.592H178.85V166.564H182.417V163.592Z" fill="#3F3D56"/>
<path d="M182.417 168.942H178.85V171.914H182.417V168.942Z" fill="#3F3D56"/>
<path d="M176.472 183.209V180.236H172.906V183.209H176.175H176.472Z" fill="#3F3D56"/>
<path d="M176.175 185.586H172.906V188.558H176.472V185.586H176.175Z" fill="#3F3D56"/>
<path d="M182.417 180.236H178.85V183.208H182.417V180.236Z" fill="#3F3D56"/>
<path d="M182.417 185.586H178.85V188.558H182.417V185.586Z" fill="#3F3D56"/>
<path d="M176.472 199.853V196.88H172.906V199.853H176.175H176.472Z" fill="#3F3D56"/>
<path d="M176.175 202.23H172.906V205.202H176.472V202.23H176.175Z" fill="#3F3D56"/>
<path d="M182.417 196.88H178.85V199.853H182.417V196.88Z" fill="#3F3D56"/>
<path d="M182.417 202.23H178.85V205.202H182.417V202.23Z" fill="#3F3D56"/>
<path d="M158.045 149.92H123.568V157.053H158.045V149.92Z" fill="#3F3D56"/>
<path d="M158.045 164.186H123.568V171.32H158.045V164.186Z" fill="#3F3D56"/>
<path d="M158.045 178.453H123.568V185.586H158.045V178.453Z" fill="#3F3D56"/>
<path d="M158.045 192.719H123.568V199.853H158.045V192.719Z" fill="#3F3D56"/>
<path d="M295.197 148.434L292.224 146.056L308.869 131.195H351.074V144.273L323.73 162.7L295.197 148.434Z" fill="#3F3D56"/>
<path d="M358.769 139.531V131.492H353.165V133.461L351.074 131.195L337.402 146.056L332.052 149.623L323.757 210.228L336.267 222.738H365.34V146.65L358.769 139.531Z" fill="#CCCCCC"/>
<path d="M337.402 146.056H292.224V222.739H337.402V146.056Z" fill="#F2F2F2"/>
<path d="M318.082 204.014H309.76V222.739H318.082V204.014Z" fill="#CCCCCC"/>
<path d="M300.844 209.364V206.392H297.277V209.364H300.547H300.844Z" fill="#3F3D56"/>
<path d="M300.547 211.741H297.277V214.714H300.844V211.741H300.547Z" fill="#3F3D56"/>
<path d="M306.788 206.391H303.222V209.364H306.788V206.391Z" fill="#3F3D56"/>
<path d="M306.788 211.741H303.222V214.714H306.788V211.741Z" fill="#3F3D56"/>
<path d="M325.216 209.364V206.392H321.649V209.364H324.919H325.216Z" fill="#3F3D56"/>
<path d="M324.919 211.741H321.649V214.714H325.216V211.741H324.919Z" fill="#3F3D56"/>
<path d="M331.16 206.391H327.593V209.364H331.16V206.391Z" fill="#3F3D56"/>
<path d="M331.16 211.741H327.593V214.714H331.16V211.741Z" fill="#3F3D56"/>
<path d="M350.182 149.92V146.948H346.615V149.92H349.885H350.182Z" fill="#3F3D56"/>
<path d="M349.885 152.298H346.615V155.27H350.182V152.298H349.885Z" fill="#3F3D56"/>
<path d="M356.126 146.948H352.56V149.92H356.126V146.948Z" fill="#3F3D56"/>
<path d="M356.126 152.297H352.56V155.27H356.126V152.297Z" fill="#3F3D56"/>
<path d="M350.182 166.564V163.592H346.615V166.564H349.885H350.182Z" fill="#3F3D56"/>
<path d="M349.885 168.942H346.615V171.914H350.182V168.942H349.885Z" fill="#3F3D56"/>
<path d="M356.126 163.592H352.56V166.564H356.126V163.592Z" fill="#3F3D56"/>
<path d="M356.126 168.942H352.56V171.914H356.126V168.942Z" fill="#3F3D56"/>
<path d="M350.182 183.209V180.236H346.615V183.209H349.885H350.182Z" fill="#3F3D56"/>
<path d="M349.885 185.586H346.615V188.558H350.182V185.586H349.885Z" fill="#3F3D56"/>
<path d="M356.126 180.236H352.56V183.208H356.126V180.236Z" fill="#3F3D56"/>
<path d="M356.126 185.586H352.56V188.558H356.126V185.586Z" fill="#3F3D56"/>
<path d="M350.182 199.853V196.88H346.615V199.853H349.885H350.182Z" fill="#3F3D56"/>
<path d="M349.885 202.23H346.615V205.202H350.182V202.23H349.885Z" fill="#3F3D56"/>
<path d="M356.126 196.88H352.56V199.853H356.126V196.88Z" fill="#3F3D56"/>
<path d="M356.126 202.23H352.56V205.202H356.126V202.23Z" fill="#3F3D56"/>
<path d="M331.755 149.92H297.277V157.053H331.755V149.92Z" fill="#3F3D56"/>
<path d="M331.755 164.186H297.277V171.32H331.755V164.186Z" fill="#3F3D56"/>
<path d="M331.755 178.453H297.277V185.586H331.755V178.453Z" fill="#3F3D56"/>
<path d="M331.755 192.719H297.277V199.853H331.755V192.719Z" fill="#3F3D56"/>
<path d="M390.457 148.434L387.484 146.056L404.129 131.195H446.334V144.273L418.99 162.7L390.457 148.434Z" fill="#3F3D56"/>
<path d="M454.029 139.531V131.492H448.425V133.461L446.334 131.195L432.662 146.056L427.312 149.623L419.017 210.228L431.527 222.738H460.601V146.65L454.029 139.531Z" fill="#CCCCCC"/>
<path d="M432.662 146.056H387.484V222.739H432.662V146.056Z" fill="#F2F2F2"/>
<path d="M413.342 204.014H405.02V222.739H413.342V204.014Z" fill="#CCCCCC"/>
<path d="M396.104 209.364V206.392H392.537V209.364H395.807H396.104Z" fill="#3F3D56"/>
<path d="M395.807 211.741H392.537V214.714H396.104V211.741H395.807Z" fill="#3F3D56"/>
<path d="M402.048 206.391H398.482V209.364H402.048V206.391Z" fill="#3F3D56"/>
<path d="M402.048 211.741H398.482V214.714H402.048V211.741Z" fill="#3F3D56"/>
<path d="M420.476 209.364V206.392H416.909V209.364H420.179H420.476Z" fill="#3F3D56"/>
<path d="M420.179 211.741H416.909V214.714H420.476V211.741H420.179Z" fill="#3F3D56"/>
<path d="M426.42 206.391H422.854V209.364H426.42V206.391Z" fill="#3F3D56"/>
<path d="M426.42 211.741H422.854V214.714H426.42V211.741Z" fill="#3F3D56"/>
<path d="M445.442 149.92V146.948H441.876V149.92H445.145H445.442Z" fill="#3F3D56"/>
<path d="M445.145 152.298H441.876V155.27H445.442V152.298H445.145Z" fill="#3F3D56"/>
<path d="M451.387 146.948H447.82V149.92H451.387V146.948Z" fill="#3F3D56"/>
<path d="M451.387 152.297H447.82V155.27H451.387V152.297Z" fill="#3F3D56"/>
<path d="M445.442 166.564V163.592H441.876V166.564H445.145H445.442Z" fill="#3F3D56"/>
<path d="M445.145 168.942H441.876V171.914H445.442V168.942H445.145Z" fill="#3F3D56"/>
<path d="M451.387 163.592H447.82V166.564H451.387V163.592Z" fill="#3F3D56"/>
<path d="M451.387 168.942H447.82V171.914H451.387V168.942Z" fill="#3F3D56"/>
<path d="M445.442 183.209V180.236H441.876V183.209H445.145H445.442Z" fill="#3F3D56"/>
<path d="M445.145 185.586H441.876V188.558H445.442V185.586H445.145Z" fill="#3F3D56"/>
<path d="M451.387 180.236H447.82V183.208H451.387V180.236Z" fill="#3F3D56"/>
<path d="M451.387 185.586H447.82V188.558H451.387V185.586Z" fill="#3F3D56"/>
<path d="M445.442 199.853V196.88H441.876V199.853H445.145H445.442Z" fill="#3F3D56"/>
<path d="M445.145 202.23H441.876V205.202H445.442V202.23H445.145Z" fill="#3F3D56"/>
<path d="M451.387 196.88H447.82V199.853H451.387V196.88Z" fill="#3F3D56"/>
<path d="M451.387 202.23H447.82V205.202H451.387V202.23Z" fill="#3F3D56"/>
<path d="M427.015 149.92H392.537V157.053H427.015V149.92Z" fill="#3F3D56"/>
<path d="M427.015 164.186H392.537V171.32H427.015V164.186Z" fill="#3F3D56"/>
<path d="M427.015 178.453H392.537V185.586H427.015V178.453Z" fill="#3F3D56"/>
<path d="M427.015 192.719H392.537V199.853H427.015V192.719Z" fill="#3F3D56"/>
<path d="M490.667 222.442H0.573486V223.304H490.667V222.442Z" fill="#3F3D56"/>
<path d="M110.058 188.389H109.196V222.442H110.058V188.389Z" fill="#3F3D56"/>
<path d="M118.014 192.729C118.069 204.636 109.692 214.328 109.692 214.328C109.692 214.328 101.225 204.714 101.17 192.807C101.115 180.9 109.493 171.208 109.493 171.208C109.493 171.208 117.959 180.822 118.014 192.729Z" fill="#6C63FF"/>
<path d="M196.266 188.389H195.404V222.442H196.266V188.389Z" fill="#3F3D56"/>
<path d="M204.222 192.729C204.277 204.636 195.9 214.328 195.9 214.328C195.9 214.328 187.433 204.714 187.378 192.807C187.324 180.9 195.701 171.208 195.701 171.208C195.701 171.208 204.167 180.822 204.222 192.729Z" fill="#6C63FF"/>
<path d="M368.252 188.389H367.39V222.442H368.252V188.389Z" fill="#3F3D56"/>
<path d="M376.208 192.729C376.262 204.636 367.885 214.328 367.885 214.328C367.885 214.328 359.419 204.714 359.364 192.807C359.309 180.9 367.686 171.208 367.686 171.208C367.686 171.208 376.153 180.822 376.208 192.729Z" fill="#6C63FF"/>
<path d="M253.81 74.1606C262.856 74.1606 270.19 72.5106 270.19 70.4752C270.19 68.4398 262.856 66.7898 253.81 66.7898C244.764 66.7898 237.431 68.4398 237.431 70.4752C237.431 72.5106 244.764 74.1606 253.81 74.1606Z" fill="#6C63FF"/>
<path d="M272.345 18.9658C272.345 29.4403 253.379 59.0526 253.379 59.0526C253.379 59.0526 234.413 29.4403 234.413 18.9658C234.413 13.9358 236.411 9.11174 239.968 5.55496C243.525 1.99818 248.349 0 253.379 0C258.409 0 263.233 1.99818 266.79 5.55496C270.347 9.11174 272.345 13.9358 272.345 18.9658Z" fill="#6C63FF"/>
<path d="M253.379 29.7418C259.331 29.7418 264.155 24.9172 264.155 18.9657C264.155 13.0143 259.331 8.1897 253.379 8.1897C247.428 8.1897 242.603 13.0143 242.603 18.9657C242.603 24.9172 247.428 29.7418 253.379 29.7418Z" fill="#F2F2F2"/>
</g>
<defs>
<clipPath id="clip0">
<rect x="0.573486" width="490.094" height="223.304" fill="white"/>
</clipPath>
</defs>
</svg>
