<svg width="140" height="90" viewBox="0 0 140 90" fill="none" xmlns="http://www.w3.org/2000/svg">
<g clip-path="url(#clip0)">
<path d="M140 86.0408H105.951V86.3713H140V86.0408Z" fill="#3F3D56"/>
<path d="M126.604 37.7412V40.0205L128.199 42.5275L129.339 37.9691L126.604 37.7412Z" fill="#A0616A"/>
<path d="M126.376 17.4569L127.622 17.1011C127.622 17.1011 129.567 17.4569 129.567 19.7361C129.567 22.0152 130.023 31.1318 130.023 31.1318L129.567 36.3739C129.567 36.3739 130.25 36.6018 130.023 37.2856C129.795 37.9693 129.339 39.5647 129.111 39.3368C128.883 39.1089 128.883 38.653 128.883 38.653C128.883 38.653 125.236 39.3368 125.464 38.653C125.692 37.9693 125.692 36.3739 125.92 36.3739C126.148 36.3739 125.692 29.5364 125.692 29.5364L126.376 17.4569Z" fill="#E6E6E6"/>
<path d="M105.75 36.9435L108.712 40.5902L112.359 44.9205L113.499 39.6785L111.461 39.3587L109.396 36.2598L105.75 36.9435Z" fill="#A0616A"/>
<path d="M113.157 35.6902C113.157 35.6902 109.738 37.5135 112.017 49.8209L112.701 62.1283L113.157 82.4128H117.715L118.627 62.3562L121.362 49.593L125.692 60.9888L124.097 81.2732L130.25 82.1849L132.302 59.3934L128.655 42.5276L125.92 37.7414L125.35 36.4879L113.157 35.6902Z" fill="#2F2E41"/>
<path d="M113.84 81.729L113.157 83.7802C113.157 83.7802 112.245 87.4269 115.436 86.971C118.627 86.5152 117.487 84.464 117.487 84.464L117.259 81.729H113.84Z" fill="#2F2E41"/>
<path d="M124.325 81.0452C124.325 81.0452 123.641 83.3243 123.641 84.4639C123.641 85.6035 124.097 86.0993 124.097 86.0993C124.097 86.0993 137.088 86.971 136.86 85.8314C136.632 84.6918 135.265 84.236 135.265 84.236L132.074 83.5523L129.795 81.7289L125.236 80.5894L124.325 81.0452Z" fill="#2F2E41"/>
<path d="M119.083 11.7589C121.474 11.7589 123.413 9.82014 123.413 7.42853C123.413 5.03692 121.474 3.09814 119.083 3.09814C116.691 3.09814 114.752 5.03692 114.752 7.42853C114.752 9.82014 116.691 11.7589 119.083 11.7589Z" fill="#A0616A"/>
<path d="M122.273 9.25195L122.957 15.6336L121.362 18.5965L117.487 14.2662L117.031 10.6195L122.273 9.25195Z" fill="#A0616A"/>
<path d="M120.906 15.8614L117.331 13.0188L116.576 14.0381L110.878 16.3172L111.106 26.3455C111.106 26.3455 111.334 34.7783 112.701 35.69L112.131 36.4877L125.692 37.0575V30.9038L128.655 17.6847L123.413 14.7218L122.761 13.7991L120.906 15.8614Z" fill="#E6E6E6"/>
<path d="M111.789 16.7732L111.457 16.0854L110.65 16.3173C110.65 16.3173 109.054 17.0011 107.915 19.964C106.775 22.9269 103.584 29.5364 103.584 29.5364C103.584 29.5364 102.673 30.676 103.356 31.8155C104.04 32.9551 104.724 35.4622 104.724 35.4622C104.724 35.4622 104.04 35.2343 104.496 36.1459C104.952 37.0576 104.952 37.9692 106.319 37.7413C107.687 37.5134 110.422 36.8297 110.194 36.1459C109.966 35.4622 109.738 34.3226 109.282 34.3226C108.826 34.3226 108.143 30.9039 108.143 30.9039L108.599 29.0806L112.017 24.9781L111.789 16.7732Z" fill="#E6E6E6"/>
<path d="M119.538 4.2378C119.538 4.2378 118.855 4.2378 118.855 4.00988C118.855 4.00988 116.471 3.93712 115.497 4.99912C114.524 6.06111 114.752 4.46571 114.752 4.46571C114.752 4.46571 112.245 3.32613 114.296 2.18656L114.524 2.41447C114.524 2.41447 114.98 1.73073 116.575 1.50281L116.348 1.2749C116.348 1.2749 116.348 1.04698 117.487 1.04698C118.627 1.04698 121.59 -0.0925942 121.818 2.41447C121.818 2.41447 123.641 1.73073 123.641 4.00988C123.641 6.28903 123.413 7.4286 123.413 7.4286C123.413 7.4286 122.957 6.28903 122.045 6.97277C121.134 7.65652 119.538 4.2378 119.538 4.2378Z" fill="#2F2E41"/>
<path d="M17.603 79.0593C27.3249 79.0593 35.2061 78.2449 35.2061 77.2404C35.2061 76.2358 27.3249 75.4214 17.603 75.4214C7.88115 75.4214 0 76.2358 0 77.2404C0 78.2449 7.88115 79.0593 17.603 79.0593Z" fill="#E6E6E6"/>
<path d="M28.2822 50.7271H6.92383V77.2489H28.2822V50.7271Z" fill="#E6E6E6"/>
<path d="M25.2658 59.9895H10.0099V60.6936H25.2658V59.9895Z" fill="white"/>
<path d="M25.2658 62.4539H10.0099V63.158H25.2658V62.4539Z" fill="white"/>
<path d="M25.2658 64.9182H10.0099V65.6223H25.2658V64.9182Z" fill="white"/>
<path d="M25.2658 67.3828H10.0099V68.0869H25.2658V67.3828Z" fill="white"/>
<path d="M21.7938 39.7088C21.7928 40.7151 21.4287 41.6874 20.7684 42.4468C20.1081 43.2062 19.1958 43.7019 18.1994 43.8426C17.2029 43.9834 16.1891 43.7598 15.3442 43.213C14.4994 42.6662 13.8802 41.8329 13.6005 40.8662C13.3209 39.8995 13.3994 38.8643 13.8218 37.9508C14.2442 37.0374 14.982 36.3071 15.8997 35.8941C16.8174 35.481 17.8534 35.413 18.8172 35.7026C19.781 35.9921 20.608 36.6198 21.1461 37.4702C21.5693 38.1401 21.7939 38.9163 21.7938 39.7088Z" fill="#E6E6E6"/>
<path d="M21.146 37.4702L17.0208 41.5946C16.7616 41.1932 15.3171 39.3278 15.3171 39.3278C15.5023 39.1408 15.6998 38.9664 15.9084 38.8059L17.1062 40.403L20.6629 36.8462C20.8433 37.0385 21.0051 37.2474 21.146 37.4702Z" fill="white"/>
<path d="M74.563 77.9922C84.2849 77.9922 92.166 77.1778 92.166 76.1732C92.166 75.1686 84.2849 74.3542 74.563 74.3542C64.8411 74.3542 56.96 75.1686 56.96 76.1732C56.96 77.1778 64.8411 77.9922 74.563 77.9922Z" fill="#E6E6E6"/>
<path d="M85.2421 49.6599H63.8838V76.1818H85.2421V49.6599Z" fill="#E6E6E6"/>
<path d="M82.2258 64.4238H66.9698V65.1279H82.2258V64.4238Z" fill="white"/>
<path d="M82.2258 66.8882H66.9698V67.5923H82.2258V66.8882Z" fill="white"/>
<path d="M82.2258 69.3525H66.9698V70.0567H82.2258V69.3525Z" fill="white"/>
<path d="M82.2258 71.8169H66.9698V72.521H82.2258V71.8169Z" fill="white"/>
<path d="M71.6433 59.0998H66.7962C66.4654 57.1876 66.4654 55.2328 66.7962 53.3206H71.6433C71.0972 55.2083 71.0972 57.2121 71.6433 59.0998Z" fill="white"/>
<path d="M82.5778 53.8618H73.6589V54.4486H82.5778V53.8618Z" fill="white"/>
<path d="M82.5778 55.9744H73.6589V56.5611H82.5778V55.9744Z" fill="white"/>
<path d="M82.5778 58.0867H73.6589V58.6734H82.5778V58.0867Z" fill="white"/>
<path d="M82.5778 60.199H73.6589V60.7857H82.5778V60.199Z" fill="white"/>
<path d="M78.7536 38.7791C78.7527 39.7855 78.3886 40.7577 77.7283 41.5171C77.0679 42.2766 76.1557 42.7722 75.1592 42.913C74.1628 43.0537 73.1489 42.8302 72.3041 42.2834C71.4592 41.7366 70.8401 40.9032 70.5604 39.9365C70.2807 38.9698 70.3593 37.9346 70.7817 37.0212C71.204 36.1077 71.9419 35.3774 72.8596 34.9644C73.7773 34.5513 74.8132 34.4833 75.7771 34.7729C76.7409 35.0625 77.5678 35.6901 78.106 36.5405C78.5292 37.2104 78.7538 37.9867 78.7536 38.7791Z" fill="#E6E6E6"/>
<path d="M78.106 36.5405L73.9808 40.6649C73.7215 40.2636 72.2771 38.3982 72.2771 38.3982C72.4622 38.2111 72.6598 38.0367 72.8684 37.8762L74.0661 39.4733L77.6229 35.9165C77.8033 36.1088 77.965 36.3177 78.106 36.5405Z" fill="white"/>
<path d="M46.409 89.3112C57.8028 89.3112 67.0394 88.3568 67.0394 87.1794C67.0394 86.002 57.8028 85.0476 46.409 85.0476C35.0152 85.0476 25.7787 86.002 25.7787 87.1794C25.7787 88.3568 35.0152 89.3112 46.409 89.3112Z" fill="#3F3D56"/>
<path d="M58.7872 56.5779H33.7557V87.6609H58.7872V56.5779Z" fill="#6C63FF"/>
<path d="M55.2113 63.1794H37.3317V64.0047H55.2113V63.1794Z" fill="white"/>
<path d="M55.2113 66.0679H37.3317V66.8931H55.2113V66.0679Z" fill="white"/>
<path d="M55.2113 68.9561H37.3317V69.7813H55.2113V68.9561Z" fill="white"/>
<path d="M55.2113 71.8442H37.3317V72.6694H55.2113V71.8442Z" fill="white"/>
<path d="M55.2113 74.7324H37.3317V75.5576H55.2113V74.7324Z" fill="white"/>
<path d="M50.9476 77.7583H41.5952V81.0592H50.9476V77.7583Z" fill="white"/>
<path d="M52.6418 43.2215C52.6404 44.7338 52.0933 46.1948 51.101 47.3361C50.1087 48.4773 48.7379 49.2221 47.2405 49.4336C45.743 49.6452 44.2195 49.3092 42.95 48.4875C41.6804 47.6658 40.75 46.4135 40.3297 44.9608C39.9094 43.5081 40.0274 41.9525 40.6622 40.5799C41.2969 39.2072 42.4057 38.1097 43.7847 37.4891C45.1638 36.8684 46.7205 36.7662 48.1689 37.2013C49.6172 37.6365 50.8599 38.5796 51.6686 39.8575C52.3046 40.8643 52.642 42.0307 52.6418 43.2215Z" fill="#6C63FF"/>
<path d="M51.6685 39.8574L45.4695 46.0553C45.0799 45.4521 42.9093 42.6489 42.9093 42.6489C43.1875 42.3678 43.4843 42.1057 43.7978 41.8646L45.5978 44.2645L50.9426 38.9197C51.2136 39.2086 51.4567 39.5226 51.6685 39.8574Z" fill="white"/>
</g>
<defs>
<clipPath id="clip0">
<rect y="0.788574" width="140" height="88.5227" fill="white"/>
</clipPath>
</defs>
</svg>
