<svg width="120" height="90" viewBox="0 0 120 90" fill="none" xmlns="http://www.w3.org/2000/svg">
<g clip-path="url(#clip0)">
<path opacity="0.1" d="M69.3023 17.2754C61.6558 17.0041 54.3723 14.475 47.4182 11.7083C40.4641 8.94167 33.5744 5.87524 26.1116 4.40906C21.3108 3.46643 15.8208 3.33343 11.9532 5.96919C8.2302 8.50255 7.0279 12.8874 6.3819 16.9471C5.89528 20.0083 5.60922 23.2225 6.94135 26.0852C7.86708 28.0728 9.5106 29.7427 10.6475 31.6459C14.6006 38.2696 11.8086 46.4376 7.52086 52.9051C5.51527 55.9388 3.1793 58.8332 1.62866 62.0622C0.0780326 65.2911 -0.639755 68.992 0.716652 72.2864C2.0625 75.5523 5.26721 78.0044 8.73898 79.7292C15.7912 83.2337 24.1017 84.2365 32.2054 84.8044C50.1437 86.0616 68.1781 85.5169 86.164 84.9722C92.8204 84.7696 99.5053 84.5659 106.054 83.5113C109.689 82.9255 113.443 81.9966 116.082 79.7524C119.433 76.9024 120.264 72.0816 118.018 68.5106C114.255 62.5224 103.84 61.0361 101.207 54.6056C99.7576 51.0673 101.246 47.1258 103.352 43.8388C107.87 36.7992 115.442 30.6231 115.841 22.5754C116.116 17.0484 112.475 11.513 106.847 8.89839C100.946 6.15391 92.7655 6.50225 88.4124 11.0391C83.9304 15.7184 76.0537 17.5161 69.3023 17.2754Z" fill="#6C63FF"/>
<path opacity="0.1" d="M48.5615 16.8723C48.4042 16.3329 48.7864 15.9962 49.5189 15.7819C50.7247 15.4566 51.9896 15.4168 53.2134 15.6658L52.2634 12.4147C51.0457 12.3023 49.8177 12.4263 48.647 12.7799C45.8392 13.599 44.3994 15.6109 45.114 18.0577C46.2245 21.8831 51.3007 19.735 51.7842 21.3807C51.97 22.014 51.4781 22.3866 50.7033 22.6125C49.5548 22.9482 47.9503 22.906 46.6024 22.6125L47.564 25.9048C48.9087 26.0727 50.2735 25.9649 51.5752 25.5882C54.4527 24.7437 56.0149 22.7455 55.2918 20.2692C54.0748 16.1524 49.0186 18.423 48.5657 16.8734L48.5615 16.8723ZM56.0117 7.62554L52.845 9.33028L56.0656 20.4138C56.6641 22.4616 58.639 23.5214 60.6869 22.9229C61.8216 22.5925 62.5869 22.1428 62.9743 21.7617L62.1552 18.9539C61.7646 19.2632 59.7643 20.5373 59.1668 18.4895L57.7397 13.579L60.3681 12.8116L59.5078 9.8644L56.8794 10.6318L56.0117 7.62554ZM64.1037 9.63112L63.5833 8.67161L60.595 9.54456L64.1291 21.6509L67.5882 20.6407L65.1931 12.4368C65.6976 11.1332 67.1385 10.9231 67.6114 10.9506L66.6825 7.76804C66.1916 7.73109 64.4837 7.89999 64.1037 9.63218V9.63112ZM67.5259 7.51998L70.9987 6.50663L74.5328 18.6109L71.0599 19.6253L67.5259 7.52737V7.51998ZM67.2198 6.46441L70.4741 4.70372L69.6539 1.90118L66.3954 3.64815L67.2198 6.4718V6.46441ZM78.1513 4.16432C77.1407 4.45514 76.282 5.12584 75.7551 6.03585L75.3244 5.23045L72.2812 6.11924L76.9901 22.2494L80.235 20.5109L79.1065 16.5915C79.7093 16.8027 80.5917 17.1035 81.8088 16.7488C84.2852 16.0258 85.9593 13.371 84.6789 8.98933C83.4935 4.97817 80.5727 3.46237 78.1513 4.16855V4.16432ZM80.1041 13.9389C79.2881 14.1775 78.7192 14.0286 78.2821 13.7658L76.7695 8.63677C77.0123 8.13116 77.4292 7.70893 78.2188 7.47565C79.4771 7.10725 80.7606 8.26416 81.2895 10.0766C81.831 11.9302 81.3771 13.56 80.1041 13.9357V13.9389ZM95.6209 5.94402C94.5865 2.40258 92.0552 0.108825 88.7766 1.06623C85.498 2.02363 84.3073 5.40356 85.3334 8.91756C86.5494 13.0786 89.5124 14.4941 92.8902 13.5093C94.5369 13.029 95.6727 12.2912 96.4601 11.491L95.6526 8.72439C94.8493 9.46962 93.8581 10.0755 92.4859 10.4745C91.1443 10.8661 89.8174 10.7437 89.1883 9.15506L95.9513 7.18009C95.8986 7.00064 95.7159 6.27335 95.6199 5.94085L95.6209 5.94402ZM88.403 6.62486C87.9459 5.06156 88.7112 4.13266 89.5831 3.88038C90.4275 3.63443 91.5158 4.02182 91.9718 5.58512L88.403 6.62486Z" fill="black"/>
<path d="M48.5615 16.0278C48.4042 15.4885 48.7864 15.1517 49.5189 14.9374C50.7247 14.6121 51.9896 14.5723 53.2134 14.8213L52.2634 11.5702C51.0457 11.4578 49.8177 11.5819 48.647 11.9354C45.8392 12.7545 44.3994 14.7664 45.114 17.2133C46.2245 21.0386 51.3007 18.8906 51.7842 20.5362C51.97 21.1695 51.4781 21.5421 50.7033 21.768C49.5548 22.1037 47.9503 22.0615 46.6024 21.768L47.564 25.0604C48.9087 25.2282 50.2735 25.1205 51.5752 24.7437C54.4527 23.8992 56.0149 21.901 55.2918 19.4247C54.0748 15.308 49.0186 17.5785 48.5657 16.0289L48.5615 16.0278ZM56.0117 6.78106L52.845 8.4858L56.0656 19.5693C56.6641 21.6171 58.639 22.6769 60.6869 22.0784C61.8216 21.748 62.5869 21.2983 62.9743 20.9172L62.1552 18.1094C61.7646 18.4187 59.7643 19.6928 59.1668 17.645L57.7397 12.7345L60.3681 11.9671L59.5078 9.01992L56.8794 9.78732L56.0117 6.78106ZM64.1037 8.78664L63.5833 7.82713L60.595 8.70008L64.1291 20.8064L67.5882 19.7962L65.1931 11.5923C65.6976 10.2887 67.1385 10.0787 67.6114 10.1061L66.6825 6.92356C66.1916 6.88661 64.4837 7.0555 64.1037 8.78769V8.78664ZM67.5259 6.6755L70.9987 5.66215L74.5328 17.7664L71.0599 18.7808L67.5259 6.68289V6.6755ZM67.2198 5.61993L70.4741 3.85924L69.6539 1.0567L66.3954 2.80367L67.2198 5.62732V5.61993ZM78.1513 3.31984C77.1407 3.61065 76.282 4.28136 75.7551 5.19137L75.3244 4.38597L72.2812 5.27476L76.9901 21.4049L80.235 19.6664L79.1065 15.7471C79.7093 15.9582 80.5917 16.259 81.8088 15.9043C84.2852 15.1813 85.9593 12.5265 84.6789 8.14485C83.4935 4.13369 80.5727 2.61789 78.1513 3.32406V3.31984ZM80.1041 13.0944C79.2881 13.333 78.7192 13.1841 78.2821 12.9213L76.7695 7.79229C77.0123 7.28667 77.4292 6.86445 78.2188 6.63117C79.4771 6.26277 80.7606 7.41968 81.2895 9.23209C81.831 11.0857 81.3771 12.7155 80.1041 13.0913V13.0944ZM95.6209 5.09953C94.5865 1.5581 92.0552 -0.735657 88.7766 0.221745C85.498 1.17915 84.3073 4.55908 85.3334 8.07307C86.5494 12.2341 89.5124 13.6496 92.8902 12.6648C94.5369 12.1845 95.6727 11.4467 96.4601 10.6466L95.6526 7.8799C94.8493 8.62514 93.8581 9.23103 92.4859 9.63004C91.1443 10.0217 89.8174 9.89921 89.1883 8.31058L95.9513 6.33561C95.8986 6.15616 95.7159 5.42887 95.6199 5.09637L95.6209 5.09953ZM88.403 5.78038C87.9459 4.21708 88.7112 3.28818 89.5831 3.03589C90.4275 2.78995 91.5158 3.17734 91.9718 4.74064L88.403 5.78038Z" fill="#6772E5"/>
<path opacity="0.1" d="M71.6553 89.9989C77.0507 89.9989 81.4246 89.3429 81.4246 88.5337C81.4246 87.7246 77.0507 87.0686 71.6553 87.0686C66.2598 87.0686 61.886 87.7246 61.886 88.5337C61.886 89.3429 66.2598 89.9989 71.6553 89.9989Z" fill="#6C63FF"/>
<path d="M68.0283 85.8907L49.2191 85.6501L49.2751 85.1677L50.1839 77.2097H66.7025L67.9175 85.1677L68.0104 85.7704L68.0283 85.8907Z" fill="#D0D2D5"/>
<path opacity="0.1" d="M68.0104 85.7702H58.6242L49.2191 85.6499L49.2751 85.1675H67.9175L68.0104 85.7702Z" fill="black"/>
<path d="M71.0431 85.2878H46.0841V85.8906H71.0431V85.2878Z" fill="#D0D2D5"/>
<path d="M94.8557 29.4135C94.8568 29.2073 94.8173 29.0029 94.7393 28.812C94.6614 28.621 94.5466 28.4473 94.4016 28.3008C94.2565 28.1542 94.0839 28.0377 93.8938 27.9579C93.7037 27.878 93.4997 27.8364 93.2934 27.8354H23.592C23.1757 27.8377 22.7772 28.0052 22.4842 28.3011C22.1913 28.597 22.0278 28.9971 22.0298 29.4135V71.6638H94.8557V29.4135Z" fill="#444053"/>
<path d="M22.0298 71.2415V76.19C22.0298 76.6043 22.1944 77.0016 22.4874 77.2946C22.7803 77.5876 23.1777 77.7522 23.592 77.7522H93.2934C93.4986 77.7523 93.7018 77.712 93.8914 77.6336C94.081 77.5551 94.2533 77.44 94.3984 77.2949C94.5435 77.1498 94.6586 76.9776 94.737 76.788C94.8155 76.5984 94.8558 76.3951 94.8557 76.19V71.2415H22.0298Z" fill="#D0D2D5"/>
<path d="M92.2029 30.488H25.0444V68.4685H92.2029V30.488Z" fill="white"/>
<path d="M58.8047 75.8755C59.0513 75.8756 59.2947 75.8196 59.5165 75.7119C59.7383 75.6042 59.9327 75.4476 60.0851 75.2538C60.1317 75.1945 60.174 75.1321 60.2118 75.0669L59.323 74.9192L60.2889 74.9266C60.3815 74.725 60.432 74.5066 60.4373 74.2848C60.4425 74.063 60.4025 73.8424 60.3195 73.6366L59.0243 74.309L60.2192 73.4308C60.106 73.2398 59.955 73.074 59.7754 72.9435C59.5957 72.813 59.3913 72.7207 59.1746 72.6722C58.958 72.6236 58.7337 72.62 58.5156 72.6613C58.2974 72.7027 58.0901 72.7882 57.9062 72.9127C57.7224 73.0372 57.566 73.198 57.4466 73.3852C57.3272 73.5723 57.2473 73.782 57.212 74.0011C57.1766 74.2203 57.1864 74.4444 57.2409 74.6597C57.2953 74.8749 57.3932 75.0767 57.5286 75.2527C57.6805 75.4461 57.8742 75.6027 58.0952 75.7105C58.3162 75.8184 58.5588 75.8748 58.8047 75.8755Z" fill="#6C63FF"/>
<path opacity="0.1" d="M60.4324 77.7522L67.9364 85.2879L66.7848 77.7522H60.4324Z" fill="black"/>
<path opacity="0.1" d="M92.2231 30.4922H24.9917V32.711H92.2231V30.4922Z" fill="#444053"/>
<path d="M27.2242 30.8787H25.4593C25.4138 30.8787 25.377 30.9155 25.377 30.961V32.1464C25.377 32.1919 25.4138 32.2287 25.4593 32.2287H27.2242C27.2697 32.2287 27.3065 32.1919 27.3065 32.1464V30.961C27.3065 30.9155 27.2697 30.8787 27.2242 30.8787Z" fill="#6C63FF"/>
<path opacity="0.3" d="M68.5297 30.8787H48.3958C48.362 30.8787 48.3346 30.9061 48.3346 30.9399V32.1675C48.3346 32.2013 48.362 32.2287 48.3958 32.2287H68.5297C68.5636 32.2287 68.591 32.2013 68.591 32.1675V30.9399C68.591 30.9061 68.5636 30.8787 68.5297 30.8787Z" fill="#6C63FF"/>
<path d="M67.9893 31.6924H67.9397L67.9217 31.6776C67.9831 31.6037 68.0171 31.5109 68.0178 31.4148C68.0174 31.3357 67.9935 31.2584 67.9492 31.1929C67.9049 31.1273 67.8421 31.0764 67.7689 31.0465C67.6956 31.0166 67.6151 31.0091 67.5376 31.025C67.4601 31.0408 67.389 31.0793 67.3333 31.1355C67.2777 31.1918 67.24 31.2632 67.2249 31.3409C67.2099 31.4186 67.2183 31.499 67.2489 31.5719C67.2796 31.6449 67.3312 31.7071 67.3972 31.7507C67.4632 31.7943 67.5407 31.8174 67.6198 31.817C67.7154 31.8155 67.8077 31.7816 67.8816 31.7209L67.8995 31.7357V31.7853L68.2088 32.0946L68.3007 32.0017L67.9893 31.6924ZM67.6198 31.6924C67.5646 31.6926 67.5106 31.6764 67.4646 31.6459C67.4186 31.6153 67.3827 31.5718 67.3615 31.5209C67.3403 31.4699 67.3347 31.4138 67.3454 31.3596C67.3561 31.3055 67.3827 31.2557 67.4217 31.2167C67.4608 31.1776 67.5105 31.1511 67.5647 31.1404C67.6188 31.1296 67.6749 31.1353 67.7259 31.1565C67.7769 31.1777 67.8204 31.2136 67.8509 31.2596C67.8815 31.3056 67.8976 31.3596 67.8974 31.4148C67.8977 31.4513 67.8907 31.4876 67.8769 31.5214C67.863 31.5552 67.8426 31.5859 67.8168 31.6117C67.7909 31.6376 67.7602 31.658 67.7264 31.6718C67.6926 31.6857 67.6564 31.6927 67.6198 31.6924Z" fill="#444053"/>
<path d="M91.2582 32.2286C91.6313 32.2286 91.9338 31.9261 91.9338 31.553C91.9338 31.1799 91.6313 30.8774 91.2582 30.8774C90.8851 30.8774 90.5826 31.1799 90.5826 31.553C90.5826 31.9261 90.8851 32.2286 91.2582 32.2286Z" fill="#6C63FF"/>
<path opacity="0.1" d="M74.005 41.1726H43.2235C42.1574 41.1726 41.2928 41.9791 41.2928 42.9734V59.9174C41.2928 60.9118 42.1574 61.7182 43.2235 61.7182H74.005C75.0711 61.7182 75.9356 60.9118 75.9356 59.9174V42.9734C75.9356 41.9791 75.0711 41.1726 74.005 41.1726Z" fill="black"/>
<path d="M72.808 40.2078H44.4406C43.3522 40.2078 42.4698 41.0901 42.4698 42.1785V58.7826C42.4698 59.8711 43.3522 60.7534 44.4406 60.7534H72.808C73.8964 60.7534 74.7787 59.8711 74.7787 58.7826V42.1785C74.7787 41.0901 73.8964 40.2078 72.808 40.2078Z" fill="#454B69"/>
<path opacity="0.3" d="M50.4931 51.7642H46.3701C46.0903 51.7642 45.8634 51.991 45.8634 52.2708V53.0002C45.8634 53.2801 46.0903 53.5069 46.3701 53.5069H50.4931C50.773 53.5069 50.9998 53.2801 50.9998 53.0002V52.2708C50.9998 51.991 50.773 51.7642 50.4931 51.7642Z" fill="#6C63FF"/>
<path opacity="0.3" d="M57.3723 51.7642H53.2492C52.9694 51.7642 52.7426 51.991 52.7426 52.2708V53.0002C52.7426 53.2801 52.9694 53.5069 53.2492 53.5069H57.3723C57.6521 53.5069 57.879 53.2801 57.879 53.0002V52.2708C57.879 51.991 57.6521 51.7642 57.3723 51.7642Z" fill="#6C63FF"/>
<path opacity="0.3" d="M59.5731 55.3413H56.0919C55.812 55.3413 55.5852 55.5682 55.5852 55.848V56.1182C55.5852 56.398 55.812 56.6249 56.0919 56.6249H59.5731C59.853 56.6249 60.0798 56.398 60.0798 56.1182V55.848C60.0798 55.5682 59.853 55.3413 59.5731 55.3413Z" fill="#6C63FF"/>
<path opacity="0.3" d="M64.2514 51.7642H60.1284C59.8485 51.7642 59.6217 51.991 59.6217 52.2708V53.0002C59.6217 53.2801 59.8485 53.5069 60.1284 53.5069H64.2514C64.5313 53.5069 64.7581 53.2801 64.7581 53.0002V52.2708C64.7581 51.991 64.5313 51.7642 64.2514 51.7642Z" fill="#6C63FF"/>
<path opacity="0.3" d="M71.1306 51.7642H67.0075C66.7277 51.7642 66.5009 51.991 66.5009 52.2708V53.0002C66.5009 53.2801 66.7277 53.5069 67.0075 53.5069H71.1306C71.4104 53.5069 71.6373 53.2801 71.6373 53.0002V52.2708C71.6373 51.991 71.4104 51.7642 71.1306 51.7642Z" fill="#6C63FF"/>
<path d="M49.4956 47.6367H46.6329C46.4609 47.6367 46.3215 47.7761 46.3215 47.9481V50.8108C46.3215 50.9828 46.4609 51.1222 46.6329 51.1222H49.4956C49.6676 51.1222 49.807 50.9828 49.807 50.8108V47.9481C49.807 47.7761 49.6676 47.6367 49.4956 47.6367Z" fill="#6C63FF"/>
<path d="M48.6375 49.9527H47.5376V48.8528H48.6375V49.9527ZM47.5819 49.9073H48.5911V48.8982H47.5819V49.9073Z" fill="#454B69"/>
<path d="M48.1097 47.6367H48.0643V48.8749H48.1097V47.6367Z" fill="#454B69"/>
<path d="M48.1097 49.9294H48.0643V51.1222H48.1097V49.9294Z" fill="#454B69"/>
<path d="M47.5597 49.3564H46.3215V49.4018H47.5597V49.3564Z" fill="#454B69"/>
<path d="M49.8082 49.3564H48.6154V49.4018H49.8082V49.3564Z" fill="#454B69"/>
<path d="M47.5439 48.8918L47.1839 48.534H46.3215V48.4875H47.2029L47.5766 48.8591L47.5439 48.8918Z" fill="#454B69"/>
<path d="M48.6301 48.8918L48.5995 48.8581L49.0185 48.4875H49.807V48.534H49.0365L48.6301 48.8918Z" fill="#454B69"/>
<path d="M47.204 50.3761H46.3215V50.3296H47.1829L47.5428 49.9148L47.5777 49.9454L47.204 50.3761Z" fill="#454B69"/>
<path d="M49.807 50.3759H49.0174L48.5984 49.9463L48.6311 49.9136L49.0375 50.3295H49.807V50.3759Z" fill="#454B69"/>
<path d="M55.1757 41.79H46.273C46.034 41.79 45.8402 41.9838 45.8402 42.2228V43.1C45.8402 43.339 46.034 43.5328 46.273 43.5328H55.1757C55.4147 43.5328 55.6085 43.339 55.6085 43.1V42.2228C55.6085 41.9838 55.4147 41.79 55.1757 41.79Z" fill="#6C63FF"/>
<path d="M76.4011 68.9286C76.3948 68.747 76.3726 68.5655 76.3504 68.385C76.2691 67.7073 76.1858 67.0296 76.0538 66.3615C76.0305 66.2311 75.9952 66.1032 75.9482 65.9793C75.9007 65.8622 75.8353 65.7545 75.7857 65.6384C75.7861 65.6342 75.7861 65.6299 75.7857 65.6257C75.8469 65.5962 75.9071 65.5666 75.9662 65.5349C76.0089 65.5132 76.0499 65.4882 76.0886 65.46C76.1276 65.4319 76.1604 65.3959 76.1847 65.3544C76.2903 65.1687 76.172 64.9322 76.1182 64.7211C76.0612 64.4941 76.0739 64.2218 75.9071 64.0698C75.3117 63.542 75.6073 62.4653 75.3096 61.7095C75.2569 61.5776 75.1967 61.4478 75.1513 61.3127C75.1165 61.2071 75.0922 61.1015 75.0669 60.996C74.8557 60.1163 74.6334 59.2406 74.3997 58.3687C74.1538 57.4651 74.1802 56.5235 73.8719 55.6411C73.8137 55.4581 73.7377 55.2814 73.645 55.1133C73.5418 54.9382 73.4021 54.7873 73.2354 54.671C72.7858 54.3607 72.3329 54.0957 71.8051 53.9828C71.2774 53.8698 70.7073 53.8878 70.169 53.8899C69.9762 53.6224 69.7111 53.4156 69.4048 53.2935L69.3953 53.266C69.3522 53.1592 69.319 53.0486 69.2961 52.9357C69.2788 52.8239 69.27 52.711 69.2697 52.5979C69.2697 52.4765 69.2644 52.354 69.2612 52.2326L69.2908 52.2041C69.3614 52.1296 69.4263 52.0499 69.485 51.9656C69.5415 51.886 69.591 51.8015 69.6328 51.7133C69.6801 51.6132 69.7204 51.5098 69.7531 51.404C69.8173 51.1902 69.8608 50.9707 69.8829 50.7485C69.9114 50.4878 69.9199 50.2207 69.9273 49.96C69.9273 49.9072 69.9273 49.8544 69.9273 49.8006V49.7615C69.9273 49.7193 69.9273 49.6782 69.9273 49.637V49.6233C69.9361 49.3537 69.868 49.0872 69.7309 48.8548C69.5399 48.5698 69.2127 48.4326 68.897 48.3186C68.2637 48.099 67.5681 47.9544 66.9421 48.1898C66.445 48.3777 66.0481 48.7873 65.5572 48.9952C65.5685 49.014 65.5787 49.0334 65.5878 49.0533C65.588 49.0561 65.588 49.0589 65.5878 49.0617C65.5963 49.0807 65.6037 49.0987 65.61 49.1177C65.6259 49.1604 65.6376 49.2046 65.6448 49.2496C65.6591 49.3349 65.6591 49.4219 65.6448 49.5072C65.4967 49.5736 65.333 49.5977 65.1719 49.5768C65.2327 49.7756 65.3341 49.9597 65.4696 50.1173C65.5129 50.1722 65.5583 50.2228 65.6016 50.2809L65.6681 50.3632C65.7812 50.4959 65.8734 50.645 65.9415 50.8055C65.9665 50.869 65.9838 50.9353 65.9932 51.0029C66.0132 51.137 66.008 51.2911 66.0259 51.4251C66.0327 51.4828 66.0472 51.5392 66.0692 51.593C66.1096 51.8711 66.2157 52.1355 66.3787 52.3645C66.5417 52.5934 66.7569 52.7801 67.0065 52.9093C67.0751 53.3266 67.0751 53.7523 67.0065 54.1696C67.0065 54.1928 66.9981 54.2161 66.9928 54.2393C66.7057 54.6013 66.4302 54.9835 66.0766 55.2664C65.9157 55.3923 65.7437 55.5033 65.5625 55.5978C65.4561 55.6591 65.3422 55.7063 65.2237 55.7382C65.0907 55.7688 64.9513 55.7646 64.8194 55.7973C64.5645 55.8782 64.3498 56.0529 64.2188 56.286C64.152 56.4093 64.078 56.5284 63.9971 56.6428C63.9232 56.7346 63.8303 56.8096 63.7522 56.8972C63.4693 57.2139 63.3923 57.672 63.33 58.1006C63.11 58.3436 62.8687 58.5665 62.609 58.7666C62.5278 58.8312 62.4374 58.8835 62.3409 58.9218C62.0918 59.0052 61.8184 58.8986 61.602 58.7381C61.3856 58.5777 61.2167 58.3666 61.0077 58.2019L60.9528 58.2832C60.9372 58.2677 60.9227 58.2512 60.9096 58.2336C60.8239 58.1128 60.7645 57.9755 60.7354 57.8303C60.6594 57.4408 60.8029 57.0239 60.6911 56.6449C60.6499 56.5077 60.5507 56.3663 60.4134 56.3694C60.2762 56.3726 60.1907 56.5098 60.0725 56.5742C59.8825 56.6798 59.6503 56.5837 59.4624 56.4792C59.2745 56.3747 59.0602 56.2575 58.8544 56.3198C58.8504 56.3878 58.8626 56.4558 58.8899 56.5181C58.9173 56.5805 58.959 56.6355 59.0116 56.6787C59.1177 56.7626 59.2047 56.868 59.2671 56.988C59.2979 57.119 59.3096 57.2537 59.3019 57.388C59.323 57.6963 59.513 57.9612 59.6967 58.2019C59.9247 58.4939 60.1633 58.7775 60.4124 59.0527C60.3825 59.1051 60.3356 59.1457 60.2794 59.1677C60.2652 59.2178 60.2652 59.2708 60.2794 59.3208C60.2898 59.3553 60.3032 59.3889 60.3195 59.4211C60.3438 59.4707 60.3733 59.5192 60.3987 59.5646L60.7692 60.2159L60.8293 60.3215C60.8547 60.3658 60.88 60.408 60.9064 60.4513C60.9937 60.603 61.0974 60.7445 61.2157 60.8735C61.2746 60.9355 61.3397 60.9914 61.4099 61.0403C61.4556 61.0732 61.504 61.1021 61.5545 61.1269C61.6251 61.1629 61.7005 61.1889 61.7783 61.2039C61.8165 61.2121 61.8554 61.217 61.8944 61.2187C61.9348 61.2219 61.9754 61.2219 62.0158 61.2187C62.1375 61.2017 62.2568 61.1709 62.3715 61.1269C63.0777 60.8788 63.7258 60.483 64.3972 60.1463C64.4895 60.0946 64.5886 60.0562 64.6917 60.0322C64.7264 60.0256 64.7618 60.0227 64.7972 60.0238C64.8331 60.0249 64.8686 60.0309 64.9028 60.0417C64.9365 60.0531 64.9685 60.0691 64.9978 60.0893C65.057 60.1291 65.0983 60.1904 65.1128 60.2603C65.1329 60.3658 65.1519 60.464 65.1709 60.5653C65.1899 60.6666 65.211 60.768 65.2321 60.8693C65.2743 61.0709 65.3197 61.2725 65.3725 61.472C65.401 61.5776 65.4284 61.6895 65.4559 61.7993C65.5234 62.0674 65.59 62.3376 65.6512 62.6078C65.6702 62.6923 65.6881 62.7778 65.705 62.8622C65.7364 63.0124 65.759 63.1643 65.7726 63.3172C65.773 63.3207 65.773 63.3242 65.7726 63.3277C65.7831 63.4607 65.7842 63.5927 65.7852 63.7257V64.1426L65.7958 65.3734C65.7958 65.5508 65.7008 65.6616 65.6258 65.821C65.6111 65.8537 65.5973 65.8875 65.5857 65.9213C65.5715 65.9642 65.5599 66.0079 65.5509 66.0522C65.5509 66.0659 65.5446 66.0807 65.5424 66.0944C65.5403 66.1081 65.5424 66.1271 65.5361 66.1429C65.5298 66.1588 65.5361 66.1746 65.5308 66.1894C65.5256 66.2042 65.5308 66.2211 65.5308 66.2358C65.5308 66.2506 65.5308 66.2696 65.5308 66.2865C65.5308 66.3034 65.5308 66.3161 65.5308 66.3298C65.5308 66.3435 65.5308 66.3667 65.5308 66.3847C65.5308 66.4026 65.5308 66.4111 65.5308 66.4237C65.5308 66.4364 65.5382 66.4649 65.5414 66.486L65.5477 66.5177C65.5551 66.5483 65.5625 66.5789 65.5731 66.6095C65.5942 66.6728 65.6206 66.7351 65.648 66.7963C65.6754 66.8576 65.7029 66.9198 65.7261 66.9832C65.7408 67.0233 65.7535 67.0642 65.7641 67.1056C65.7667 67.115 65.7688 67.1245 65.7705 67.1341C65.7789 67.1669 65.7863 67.1996 65.7926 67.2334V67.2566C65.799 67.2925 65.8042 67.3294 65.8085 67.3621C65.809 67.3663 65.809 67.3706 65.8085 67.3748C65.8085 67.416 65.8169 67.4571 65.819 67.4983C65.8285 67.6482 65.8264 67.8012 65.819 67.9522L65.8063 68.7038V68.727C65.8052 68.7504 65.8103 68.7737 65.8211 68.7945C65.8287 68.8064 65.8392 68.8161 65.8515 68.8227C65.8639 68.8294 65.8778 68.8328 65.8918 68.8325C65.9454 68.8287 65.9965 68.8088 66.0386 68.7755L66.3742 68.5317H66.3953C66.1304 68.9655 65.9182 69.4437 65.8771 69.9536C65.8611 70.2902 65.8827 70.6276 65.9415 70.9595C66.2507 73.1762 66.9791 75.413 66.826 77.6508C66.7659 78.5322 67.1311 79.3914 67.129 80.2739C67.129 80.6169 67.0709 80.9568 67.0561 81.2988C66.9917 82.7682 67.7412 84.2544 67.4361 85.69C67.5417 86.0468 67.9418 86.2368 68.0547 86.5915C68.1497 86.8923 68.0125 87.2121 67.9016 87.5066C67.8617 87.6093 67.831 87.7152 67.8098 87.8233C67.5026 87.8233 67.1617 87.8296 66.9569 87.9151C66.9001 87.9337 66.8448 87.9563 66.7912 87.9827C66.6022 88.0956 66.5896 88.4049 66.7089 88.5918C66.8281 88.7786 67.4984 89.375 67.6948 89.4732L68.1244 89.6843C68.3549 89.8146 68.6041 89.9086 68.8633 89.963C69.0814 89.9872 69.3018 89.983 69.5188 89.9503C69.6866 89.9323 69.8724 89.9049 69.9811 89.7677C70.1342 89.5734 70.0561 89.2578 69.9516 88.977C69.9902 88.9462 70.02 88.9058 70.0381 88.8599C70.0567 88.7864 70.0663 88.7109 70.0666 88.635C70.0976 88.4883 70.148 88.3463 70.2165 88.2128C70.3928 87.7832 70.3854 87.2997 70.3748 86.8321C70.3768 86.0718 70.3246 85.3124 70.2186 84.5595C70.1658 84.2428 70.0941 83.9261 70.0328 83.6095C69.8076 82.4627 69.7109 81.2943 69.7447 80.1261C69.7485 79.8424 69.709 79.5598 69.6275 79.288C69.5929 79.1311 69.5836 78.9696 69.6001 78.8098L69.7267 76.877C69.7628 76.484 69.7688 76.0888 69.7447 75.6948C69.7267 75.4837 69.6919 75.2726 69.6708 75.0615C69.6388 74.659 69.6321 74.255 69.6507 73.8518C69.6623 73.4179 69.6824 72.9524 69.9304 72.6041C69.9431 72.5817 69.9601 72.5621 69.9804 72.5463C70.0007 72.5306 70.0239 72.519 70.0487 72.5123C70.0993 72.5049 70.1141 72.5735 70.0951 72.6178C70.1215 72.698 70.149 72.7772 70.1764 72.8574C70.1848 72.8806 70.1922 72.9028 70.2007 72.925C70.2144 72.9662 70.2292 73.0073 70.244 73.0485C70.2587 73.0897 70.2651 73.1055 70.2746 73.134L70.3157 73.2395C70.3273 73.2712 70.34 73.3018 70.3516 73.3324C70.3632 73.363 70.378 73.3989 70.3917 73.4317C70.4055 73.4644 70.4192 73.4971 70.434 73.5298C70.4487 73.5626 70.4593 73.59 70.473 73.6206L70.5237 73.7262C70.5363 73.7526 70.549 73.78 70.5627 73.8064C70.5765 73.8328 70.6039 73.8834 70.625 73.9214C70.6366 73.9436 70.6482 73.9658 70.6609 73.9869C70.6947 74.046 70.7295 74.103 70.7665 74.16C70.8382 74.2656 70.9153 74.3711 70.9776 74.4841C70.9996 74.5212 71.0193 74.5596 71.0367 74.5991C71.0951 74.7449 71.1414 74.8953 71.175 75.0488C71.2119 75.1881 71.2552 75.3243 71.3027 75.4584C71.3502 75.5924 71.4082 75.7265 71.46 75.8574C71.4885 75.9228 71.518 75.9883 71.5476 76.0526C71.6362 76.2479 71.7323 76.44 71.8294 76.63C71.8465 76.6637 71.8599 76.6991 71.8695 76.7356C71.8744 76.7533 71.8783 76.7713 71.8811 76.7894C71.885 76.8245 71.885 76.8599 71.8811 76.895C71.88 76.917 71.8771 76.9389 71.8727 76.9604C71.8664 76.993 71.8569 77.0248 71.8442 77.0554C71.7144 77.352 71.8189 77.6444 71.8759 77.9358C71.9257 78.2429 71.9497 78.5536 71.9476 78.8647C71.9476 78.9702 71.9476 79.0758 71.9571 79.174C71.9571 79.3027 71.9571 79.4305 71.9645 79.5592C71.9719 79.688 71.9645 79.8358 71.9719 79.9741C71.9742 80.1126 71.9686 80.2511 71.955 80.3889C71.955 80.4375 71.9424 80.485 71.935 80.5325C71.9118 80.675 71.879 80.8164 71.8505 80.9547C71.7451 81.5113 71.6963 82.0772 71.7049 82.6436C71.7049 82.8709 71.7123 83.0986 71.727 83.3266C71.7397 83.5556 71.7576 83.7836 71.7777 84.0127C71.7883 84.1383 71.8009 84.2639 71.8136 84.3895C71.8347 84.607 71.8579 84.8244 71.8811 85.0419C71.9044 85.2593 71.9297 85.4989 71.9519 85.7259C71.974 85.9528 71.9941 86.1798 72.0099 86.4057C72.0198 86.5177 71.9963 86.6301 71.9424 86.7287C71.9211 86.7678 71.9034 86.8088 71.8896 86.8511C71.8797 86.8805 71.872 86.9104 71.8664 86.9409C71.8602 86.9758 71.8559 87.011 71.8537 87.0464C71.8511 87.1205 71.8553 87.1947 71.8664 87.2681C71.872 87.3047 71.8783 87.3399 71.8854 87.3736C71.9012 87.4465 71.9202 87.5193 71.9392 87.5911C71.9827 87.79 72.0538 87.9818 72.1503 88.1611C72.1709 88.198 72.1942 88.2333 72.22 88.2666C72.2274 88.2772 72.2358 88.2867 72.2443 88.2973C72.2661 88.3226 72.2862 88.3494 72.3044 88.3775C72.3131 88.3905 72.3205 88.4043 72.3266 88.4187C72.3483 88.477 72.3527 88.5404 72.3393 88.6013C72.3276 88.6646 72.3055 88.7279 72.2886 88.7881L72.3435 88.7955C72.2664 89.0393 72.2305 89.2895 72.3604 89.4531C72.4659 89.5903 72.6549 89.6178 72.8227 89.6357C73.0396 89.6693 73.2601 89.6739 73.4782 89.6494C73.7374 89.5951 73.9866 89.5011 74.2171 89.3708L74.6467 89.1597C74.8431 89.0615 75.5123 88.4693 75.6316 88.2772C75.7509 88.0851 75.7371 87.7821 75.5503 87.6692C75.4969 87.6422 75.4415 87.6193 75.3846 87.6006C75.1946 87.5214 74.8874 87.514 74.6003 87.5098C74.5855 87.4042 74.5771 87.2892 74.5728 87.1805C74.5536 86.7765 74.5614 86.3716 74.5961 85.9687C74.6203 85.6826 74.6573 85.3976 74.6541 85.1115C74.6541 84.7294 74.575 84.3515 74.5338 83.9715C74.4926 83.5915 74.4884 83.22 74.4821 82.8442C74.4726 82.2911 74.6351 81.7643 74.7058 81.2175L74.8293 80.2559C74.8501 80.1392 74.8529 80.0199 74.8378 79.9023C74.8188 79.7968 74.7702 79.6912 74.7502 79.5856C74.7069 79.346 74.8156 79.1085 74.8494 78.8668C74.8885 78.5892 74.8283 78.3073 74.7892 78.0287C74.738 77.5886 74.7137 77.1459 74.7164 76.7029C74.6784 73.9795 74.6013 71.1949 73.6809 68.6468C73.6439 68.5412 73.6038 68.4356 73.5627 68.3375C73.5813 68.3325 73.5996 68.3265 73.6176 68.3195C73.6463 68.3089 73.6736 68.2947 73.6988 68.2773C73.7101 68.2705 73.7206 68.2627 73.7305 68.2541C73.7599 68.2248 73.7813 68.1884 73.7928 68.1485C73.8051 68.11 73.8116 68.0697 73.8118 68.0292C73.8105 67.9579 73.8002 67.8869 73.7812 67.8181L73.7685 67.7749C73.7474 67.7031 73.7242 67.6324 73.6999 67.5637C73.6767 67.4951 73.6513 67.4286 73.6249 67.3611C73.5699 67.2359 73.5255 67.1063 73.4919 66.9737C73.4275 66.6739 73.4919 66.3277 73.3114 66.0838C72.9124 65.537 73.1943 64.6968 73.0275 64.0307C72.9726 63.8196 72.8924 63.6085 72.8417 63.3974C72.81 63.2623 72.79 63.124 72.7699 62.9857C72.7171 62.6868 72.691 62.3837 72.6918 62.0801C72.6918 61.9281 72.715 61.7761 72.733 61.6251L72.8597 60.578C73.0012 60.8489 73.1022 61.1391 73.1594 61.4393C73.1689 61.4826 73.1774 61.5248 73.1869 61.5681C73.301 62.0846 73.4419 62.5948 73.6091 63.0966C73.7052 63.3995 73.8002 63.7014 73.9036 64.0012C73.9342 64.0867 73.9638 64.1733 73.9912 64.2609C74.0182 64.3484 74.0393 64.4376 74.0546 64.5279C74.0662 64.5997 74.0715 64.6736 74.0767 64.7464C74.082 64.8193 74.0862 64.8942 74.0936 64.967C74.1281 65.2788 74.2328 65.5787 74.3997 65.8442C74.405 65.851 74.4099 65.858 74.4145 65.8653C74.4429 65.9166 74.4885 65.9562 74.5433 65.9772C74.5812 65.9851 74.6204 65.9851 74.6583 65.9772H74.6647C74.7206 65.9656 74.7766 65.9529 74.8315 65.9392C74.8397 65.9376 74.8478 65.9355 74.8557 65.9329C74.8811 66.2601 74.9782 66.5863 74.9866 66.9167C74.9972 67.397 74.8209 67.8572 74.709 68.3227C74.6148 68.7475 74.5516 69.1786 74.5201 69.6126C74.5056 69.6985 74.511 69.7866 74.5359 69.8702C74.5479 69.9107 74.5737 69.9458 74.6087 69.9695C74.6437 69.9932 74.6859 70.004 74.728 70C74.7577 69.99 74.7851 69.9741 74.8085 69.9532C74.8319 69.9324 74.8509 69.907 74.8642 69.8786C74.9897 69.6699 75.0316 69.4213 74.9814 69.183C75.0816 69.2041 75.1334 69.3192 75.1576 69.4237C75.2218 69.6946 75.2064 69.9783 75.1133 70.2407C75.051 70.4159 74.955 70.5774 74.9022 70.7579C74.8832 70.814 74.8832 70.8749 74.9022 70.931C74.955 71.0524 75.1217 71.044 75.2421 70.9996C75.6354 70.8393 75.9548 70.5382 76.1383 70.1552C76.3251 69.774 76.4154 69.3528 76.4011 68.9286Z" fill="url(#paint0_linear)"/>
<path d="M70.2429 89.7773C70.13 89.9135 69.9368 89.9409 69.7616 89.9588C69.5353 89.9915 69.3059 89.9957 69.0786 89.9715C68.8106 89.9175 68.5521 89.8243 68.3112 89.695L67.8637 89.4838C67.6599 89.3857 66.9633 88.7967 66.8387 88.6056C66.7141 88.4146 66.7268 88.1137 66.9231 88.0008C66.9793 87.9744 67.0371 87.9518 67.0963 87.9332C67.4256 87.8023 68.0927 87.8688 68.4432 87.8182C68.6169 87.81 68.7895 87.8506 68.9414 87.9353C69.2876 88.0884 69.8977 88.2098 70.0487 88.5993C70.1659 88.8991 70.4868 89.4807 70.2429 89.7773Z" fill="#2F2E41"/>
<path d="M72.7288 89.4882C72.8418 89.6244 73.0349 89.6518 73.2101 89.6697C73.7094 89.7631 74.2255 89.6687 74.6594 89.4048L75.107 89.1937C75.3118 89.0955 76.0085 88.5065 76.133 88.3154C76.2576 88.1244 76.2449 87.8225 76.0475 87.7106C75.992 87.6835 75.9345 87.6609 75.8755 87.643C75.5461 87.5121 74.879 87.5786 74.5285 87.528C74.3544 87.5195 74.1814 87.5601 74.0293 87.6451C73.6841 87.7982 73.0793 87.9196 72.923 88.3091C72.8027 88.6099 72.4808 89.1916 72.7288 89.4882Z" fill="#2F2E41"/>
<path d="M73.8171 68.1444C73.925 68.3519 74.0192 68.5663 74.0989 68.7862C75.0574 71.3195 75.1376 74.0915 75.1777 76.8011C75.1742 77.2417 75.1992 77.6821 75.2527 78.1195C75.2928 78.3971 75.3582 78.6768 75.3149 78.9545C75.2801 79.1941 75.1672 79.4305 75.2094 79.668C75.2294 79.7736 75.2801 79.8791 75.3002 79.9847C75.316 80.1016 75.3128 80.2203 75.2907 80.3362L75.1629 81.2926C75.0891 81.8372 74.9202 82.3608 74.9297 82.9107C74.936 83.2855 74.9423 83.6602 74.9835 84.0328C75.0447 84.4083 75.0867 84.7867 75.1091 85.1665C75.1091 85.4515 75.0732 85.7354 75.0479 86.0194C75.0123 86.4202 75.0042 86.823 75.0236 87.2249C75.0384 87.5341 75.0743 87.8582 75.2347 88.1189C75.05 88.3828 74.8684 88.6193 74.5739 88.7523C73.9754 89.0141 73.2882 88.9254 72.6412 88.8314C72.6771 88.7122 72.732 88.577 72.6802 88.463C72.6503 88.408 72.613 88.3572 72.5694 88.3121C72.4286 88.1111 72.3305 87.8833 72.2812 87.6429C72.2031 87.3568 72.125 87.0496 72.2812 86.7762C72.3362 86.6802 72.3608 86.5698 72.352 86.4596C72.2179 84.6651 71.8178 82.8031 72.1862 81.0392C72.2253 80.8513 72.2717 80.6634 72.2918 80.4724C72.3117 80.1977 72.3152 79.922 72.3024 79.6469L72.3066 79.2532C72.2876 78.8447 72.3066 78.4256 72.2221 78.0213C72.1641 77.7321 72.0543 77.4408 72.1894 77.1452C72.2185 77.078 72.2318 77.005 72.2283 76.9318C72.2248 76.8586 72.2047 76.7872 72.1693 76.723C71.885 76.225 71.6563 75.6972 71.4874 75.1491C71.4526 74.9961 71.4045 74.8464 71.3439 74.7016C71.2617 74.5488 71.1671 74.403 71.061 74.2656C70.7443 73.8001 70.548 73.2607 70.3601 72.7287C70.3802 72.6791 70.3601 72.6115 70.3126 72.6232C70.2869 72.6295 70.2628 72.6408 70.2416 72.6566C70.2204 72.6724 70.2025 72.6922 70.1891 72.715C69.9315 73.0612 69.9094 73.5236 69.8978 73.9563C69.8784 74.3575 69.8855 74.7595 69.9189 75.1597C69.94 75.3708 69.9769 75.5819 69.9959 75.793C70.0207 76.1849 70.0144 76.5781 69.9769 76.9689L69.8471 78.8837C69.8286 79.0428 69.8379 79.2039 69.8745 79.3598C69.9593 79.6292 70.0006 79.9103 69.997 80.1927C69.9638 81.3539 70.0658 82.5151 70.301 83.6528C70.3643 83.9695 70.4393 84.2798 70.4942 84.5954C70.6037 85.3441 70.6581 86.0998 70.6567 86.8565C70.6683 87.322 70.6757 87.8065 70.492 88.2287C70.42 88.3612 70.3674 88.5034 70.3358 88.6509C70.3357 88.7265 70.3258 88.8017 70.3063 88.8747C70.2524 89.013 70.0952 89.0721 69.9463 89.1038C69.6736 89.1629 69.3939 89.1829 69.1156 89.1629C69.0503 89.1622 68.986 89.1478 68.9266 89.1207C68.8211 89.0668 68.7683 88.9528 68.6891 88.8673C68.5192 88.6815 68.2363 88.6245 68.0811 88.4261C67.8869 88.177 67.9682 87.817 68.0811 87.5236C68.1941 87.2301 68.3387 86.9124 68.2395 86.6126C68.1223 86.2611 67.7117 86.0711 67.5956 85.7164C67.9122 84.2872 67.1332 82.8094 67.1997 81.3474C67.2156 81.0065 67.2747 80.6687 67.2757 80.3278C67.2757 79.4495 66.8989 78.5945 66.9591 77.7184C67.1184 75.4922 66.3595 73.2692 66.0386 71.0599C65.9772 70.7304 65.9545 70.3949 65.971 70.0602C66.0185 69.5071 66.275 68.993 66.5833 68.5318C66.8049 68.2014 67.0709 67.8773 67.4372 67.7232C67.7391 67.5955 68.0769 67.5965 68.4041 67.5986C69.2211 67.605 70.0382 67.6113 70.8552 67.6261C71.4112 67.618 71.9666 67.6676 72.5124 67.7739C72.9547 67.8741 73.3685 68.08 73.8171 68.1444Z" fill="#2F2E41"/>
<g opacity="0.1">
<path opacity="0.1" d="M70.4466 72.7086C70.474 72.6629 70.5184 72.6298 70.5701 72.6168C70.6229 72.6094 70.6387 72.6769 70.6187 72.7223C70.8066 73.2501 70.9987 73.7937 71.3185 74.2592C71.4253 74.3963 71.5203 74.5421 71.6025 74.6952C71.6626 74.8401 71.7107 74.9898 71.746 75.1428C71.9149 75.6906 72.1432 76.2184 72.4269 76.7166C72.4624 76.7807 72.4827 76.8522 72.4862 76.9254C72.4897 76.9986 72.4763 77.0716 72.4469 77.1388C72.3118 77.4344 72.4216 77.7257 72.4807 78.015C72.562 78.4192 72.5462 78.8383 72.5652 79.2468C72.5652 79.3745 72.5652 79.5023 72.5726 79.63C72.5863 79.9051 72.5831 80.1807 72.563 80.4554C72.5409 80.6465 72.4944 80.8344 72.4575 81.0223C72.0902 82.7861 72.4892 84.645 72.6232 86.4426C72.6325 86.5528 72.6082 86.6632 72.5536 86.7593C72.3931 87.0327 72.4712 87.3399 72.5536 87.6259C72.602 87.8666 72.7002 88.0946 72.8417 88.2952C72.8828 88.3411 72.9182 88.3918 72.9473 88.4461C72.999 88.5601 72.9473 88.6952 72.9072 88.8145C73.1931 88.8605 73.4814 88.8911 73.7706 88.9063C73.3953 88.9094 73.0205 88.8787 72.6507 88.8145C72.6866 88.6952 72.7414 88.5601 72.6897 88.4461C72.6598 88.391 72.6225 88.3402 72.5789 88.2952C72.4381 88.0941 72.34 87.8664 72.2907 87.6259C72.2126 87.3399 72.1345 87.0327 72.2907 86.7593C72.3457 86.6633 72.3703 86.5529 72.3614 86.4426C72.2274 84.6482 71.8273 82.7861 72.1957 81.0223C72.2348 80.8344 72.2812 80.6465 72.3013 80.4554C72.3212 80.1807 72.3247 79.9051 72.3118 79.63C72.3118 79.5023 72.3065 79.3745 72.3034 79.2468C72.2844 78.8383 72.3034 78.4192 72.2189 78.015C72.1609 77.7257 72.0511 77.4344 72.1862 77.1388C72.2153 77.0716 72.2286 76.9986 72.2251 76.9254C72.2217 76.8522 72.2015 76.7808 72.1662 76.7166C71.8818 76.2186 71.6531 75.6908 71.4843 75.1428C71.4489 74.9898 71.4009 74.8401 71.3407 74.6952C71.2585 74.5424 71.1639 74.3966 71.0578 74.2592C70.7517 73.8148 70.5627 73.3039 70.3833 72.7952C70.4065 72.7688 70.4255 72.7382 70.4466 72.7086Z" fill="black"/>
</g>
<path d="M60.6171 57.995C60.538 57.6076 60.6878 57.1928 60.5707 56.816C60.5285 56.6798 60.425 56.5384 60.2825 56.5415C60.14 56.5447 60.0503 56.6809 59.9278 56.7452C59.7304 56.8508 59.4898 56.7547 59.2945 56.6513C59.0992 56.5478 58.8723 56.4296 58.6612 56.4919C58.6358 56.627 58.7266 56.7547 58.8258 56.8487C58.9347 56.9318 59.0249 57.0368 59.0908 57.1569C59.1404 57.2815 59.1172 57.4208 59.1277 57.5549C59.1499 57.861 59.3388 58.1259 59.5383 58.3645C59.851 58.749 60.1833 59.1171 60.5337 59.4676C60.5337 59.4676 61.0615 58.8089 61.0541 58.6938C61.0467 58.5788 60.8662 58.4827 60.8008 58.3961C60.7108 58.2776 60.648 58.1406 60.6171 57.995Z" fill="#A1616A"/>
<path d="M76.4571 66.1019C76.5044 66.2249 76.5397 66.3521 76.5626 66.4819C76.6999 67.1469 76.7864 67.8214 76.8719 68.4949C76.8941 68.6743 76.9173 68.8548 76.9236 69.0353C76.9483 69.4654 76.8598 69.8945 76.6671 70.2798C76.4726 70.6676 76.1401 70.9688 75.7351 71.1243C75.6105 71.1686 75.4363 71.1771 75.3815 71.0567C75.3619 71.001 75.3619 70.9403 75.3815 70.8847C75.4311 70.7052 75.5313 70.5437 75.5926 70.3696C75.6889 70.1094 75.7051 69.8262 75.639 69.5568C75.6137 69.4512 75.5598 69.3383 75.4553 69.3171C75.5074 69.5551 75.4634 69.804 75.3329 70.0096C75.3185 70.0381 75.2986 70.0634 75.2743 70.084C75.25 70.1047 75.2219 70.1203 75.1915 70.1299C75.1484 70.1344 75.1051 70.1241 75.0686 70.1007C75.0322 70.0773 75.0048 70.0422 74.9909 70.0012C74.9655 69.9181 74.9601 69.8302 74.9751 69.7446C75.0082 69.3125 75.0738 68.8834 75.1714 68.4611C75.2875 67.9977 75.4722 67.5406 75.4596 67.0625C75.449 66.6297 75.2769 66.2043 75.3255 65.7747C75.3247 65.7508 75.332 65.7274 75.3462 65.7083C75.3603 65.6891 75.3806 65.6753 75.4036 65.6691C75.5248 65.6194 75.6493 65.5782 75.7762 65.5456C75.8512 65.5266 76.1066 65.44 76.1784 65.478C76.2502 65.516 76.2544 65.7029 76.284 65.7683C76.3399 65.877 76.4085 65.9847 76.4571 66.1019Z" fill="#A1616A"/>
<path d="M67.9143 53.2766C68.8908 53.2766 69.6824 52.485 69.6824 51.5086C69.6824 50.5321 68.8908 49.7405 67.9143 49.7405C66.9378 49.7405 66.1462 50.5321 66.1462 51.5086C66.1462 52.485 66.9378 53.2766 67.9143 53.2766Z" fill="#A1616A"/>
<path d="M69.4987 52.788C69.4979 52.9008 69.5068 53.0134 69.5251 53.1247C69.5496 53.2373 69.585 53.3472 69.6306 53.453C69.6894 53.6258 69.7726 53.7893 69.8776 53.9386C69.9842 54.0892 70.1443 54.1935 70.3252 54.2299C69.1163 54.7968 67.8257 55.1698 66.5009 55.3351C66.7095 55.1964 66.883 55.011 67.0075 54.7936C67.0742 54.6545 67.1194 54.506 67.1416 54.3534C67.2549 53.7141 67.1978 53.0562 66.9759 52.446C66.9537 52.3869 66.9326 52.313 66.9759 52.2634C66.9939 52.2457 67.0155 52.2321 67.0392 52.2233C67.5639 52.0005 68.1309 51.8946 68.7007 51.9129C68.8463 51.9129 68.992 51.9203 69.1377 51.9309C69.2158 51.9372 69.3878 51.9203 69.4543 51.9773C69.5208 52.0343 69.4913 52.2581 69.4934 52.3499L69.4987 52.788Z" fill="#A1616A"/>
<path d="M70.4339 54.0778C70.1737 53.7448 69.8095 53.5084 69.3994 53.4062C68.9893 53.3041 68.5568 53.3421 68.1708 53.5141C67.3263 53.9163 66.9146 54.8864 66.1747 55.4479C66.0063 55.574 65.8268 55.6846 65.6384 55.7783C65.5273 55.8395 65.4088 55.8864 65.2859 55.9177C65.1476 55.9483 65.004 55.9441 64.8637 55.9768C64.6012 56.0539 64.3776 56.2273 64.2377 56.4624C64.1687 56.5854 64.0918 56.7039 64.0076 56.817C63.9305 56.9089 63.8345 56.9838 63.7532 57.0714C63.4587 57.3881 63.3785 57.842 63.312 58.2684C63.0815 58.5108 62.83 58.7323 62.5604 58.9303C62.4758 58.9954 62.3819 59.0474 62.2817 59.0844C62.0231 59.1688 61.7371 59.0622 61.5165 58.9028C61.2958 58.7434 61.1164 58.5334 60.8989 58.375C60.6994 58.6601 60.4904 58.9472 60.2772 59.2195C60.2454 59.2725 60.1961 59.3128 60.1379 59.3335C60.0978 59.4686 60.1938 59.608 60.2656 59.7283L60.6509 60.3764C60.7789 60.612 60.9352 60.8311 61.1164 61.0287C61.3033 61.2232 61.5556 61.3417 61.8247 61.3613C61.9949 61.3597 62.1633 61.3272 62.3218 61.2652C63.0607 61.0182 63.731 60.6245 64.433 60.2888C64.5596 60.2168 64.7013 60.1752 64.8468 60.1674C64.9195 60.1657 64.9908 60.1878 65.0498 60.2303C65.1089 60.2728 65.1524 60.3333 65.174 60.4028C65.2542 60.8081 65.3334 61.2114 65.4432 61.6083C65.548 61.984 65.6448 62.3609 65.7334 62.7388C65.7929 62.9707 65.8353 63.2068 65.8601 63.4449C65.8717 63.5801 65.8728 63.7152 65.8749 63.8513L65.8897 65.4896C65.8897 65.6669 65.7905 65.7767 65.7123 65.935C65.5946 66.1812 65.5769 66.4635 65.6627 66.7225C65.706 66.8502 65.7746 66.9684 65.8232 67.0951C65.9393 67.4002 65.9351 67.7358 65.9287 68.062L65.915 68.8094C65.911 68.8405 65.9166 68.8722 65.9308 68.9001C65.9762 68.9709 66.086 68.9297 66.1557 68.8811L66.5008 68.6447C66.9687 68.7093 67.4413 68.7323 67.9132 68.7133C69.2548 68.6943 70.5975 68.7471 71.936 68.841C72.3835 68.8727 72.8448 68.9065 73.267 68.7576C73.4782 68.6816 73.6787 68.5602 73.9004 68.5001C73.991 68.4852 74.0767 68.4491 74.1506 68.3945C74.273 68.2816 74.2403 68.0778 74.1907 67.9237C74.1463 67.7844 74.0967 67.6461 74.0408 67.511C73.9839 67.3866 73.9373 67.2577 73.9014 67.1257C73.8349 66.8281 73.9014 66.4829 73.7146 66.2401C73.2987 65.6965 73.5932 64.8594 73.418 64.1976C73.3621 63.9865 73.2787 63.7753 73.2259 63.5642C73.1921 63.4291 73.171 63.2919 73.1509 63.1547C73.0955 62.8574 73.0683 62.5556 73.0697 62.2532C73.0697 62.1023 73.0939 61.9513 73.1129 61.8014L73.2449 60.7585C73.4094 61.0672 73.5241 61.3999 73.5848 61.7444C73.7047 62.2592 73.8527 62.7669 74.0281 63.2655C74.1273 63.5663 74.2266 63.8661 74.3342 64.1648C74.4031 64.3354 74.4558 64.5122 74.4915 64.6926C74.5147 64.8372 74.5158 64.985 74.5327 65.1296C74.5681 65.4415 74.6766 65.7406 74.8493 66.0026C74.8817 66.0635 74.9349 66.1107 74.9992 66.1356C75.042 66.145 75.0863 66.145 75.1291 66.1356C75.5959 66.0434 76.0477 65.8871 76.4718 65.6711C76.5619 65.6333 76.6402 65.5721 76.6987 65.4938C76.8127 65.308 76.685 65.0769 76.629 64.8657C76.5731 64.6546 76.5836 64.3686 76.4063 64.2176C75.7867 63.6898 76.0896 62.6205 75.7846 61.869C75.7297 61.737 75.6664 61.6093 75.6199 61.4742C75.584 61.3686 75.5576 61.2631 75.5312 61.1575C75.3152 60.2828 75.0837 59.4113 74.8367 58.5429C74.5812 57.6435 74.6087 56.7072 74.2867 55.829C74.2263 55.6456 74.1474 55.4688 74.0513 55.3012C73.9436 55.1261 73.7997 54.976 73.6291 54.861C73.1615 54.5518 72.6907 54.2889 72.1408 54.177C71.5908 54.0652 70.9934 54.0715 70.4339 54.0778Z" fill="#3F3D56"/>
<path d="M66.3078 51.9415C66.0703 51.8138 66.1325 51.4654 66.0967 51.2026C66.0133 50.6527 65.3936 50.3275 65.2522 49.7913C65.4194 49.8121 65.5892 49.7881 65.7441 49.7216C65.7738 49.5436 65.7386 49.3608 65.6449 49.2065C66.1547 48.9954 66.5685 48.5932 67.0857 48.4064C67.7381 48.171 68.458 48.3156 69.1209 48.5341C69.4491 48.6397 69.7901 48.7843 69.9885 49.0672C70.206 49.3786 70.1997 49.7871 70.1912 50.1671C70.1733 50.7624 70.149 51.3789 69.884 51.9119C69.5473 52.5907 68.592 53.2187 67.8025 53.0351C67.4752 52.9591 67.3802 52.7522 67.2398 52.4672C67.1533 52.2898 67.1216 52.084 66.9232 51.9911C66.7247 51.8982 66.5009 52.045 66.3078 51.9415Z" fill="#3F3D56"/>
<g opacity="0.1">
<path opacity="0.1" d="M65.9235 68.1879C65.9231 68.1911 65.9231 68.1942 65.9235 68.1974C65.9689 68.2681 66.0787 68.227 66.1484 68.1784L66.4988 67.9367C66.9667 68.0009 67.4393 68.0235 67.9112 68.0042C69.2528 67.9852 70.5955 68.038 71.9339 68.132C72.3815 68.1636 72.8428 68.1974 73.265 68.0486C73.4761 67.9726 73.6767 67.8522 73.8984 67.791C73.9749 67.7768 74.0487 67.7504 74.1169 67.7129C74.1422 67.7826 74.1665 67.8522 74.1887 67.924C74.2383 68.0834 74.271 68.2818 74.1485 68.3948C74.0747 68.4493 73.989 68.4855 73.8984 68.5003C73.6788 68.5605 73.4761 68.6819 73.265 68.7579C72.8428 68.9067 72.3815 68.873 71.9339 68.8413C70.5955 68.7473 69.2528 68.6946 67.9112 68.7136C67.44 68.7324 66.9681 68.7094 66.5009 68.645L66.1505 68.8877C66.0808 68.9363 65.971 68.9775 65.9257 68.9067C65.9114 68.8788 65.9059 68.8471 65.9098 68.816C65.9147 68.607 65.9193 68.3976 65.9235 68.1879Z" fill="black"/>
<path opacity="0.1" d="M73.5849 61.7424C73.5242 61.398 73.4095 61.0652 73.245 60.7565L73.113 61.7995C73.1046 61.8649 73.0961 61.9303 73.0887 61.9958C73.0719 61.8458 73.0655 61.6949 73.0697 61.544C73.0697 61.3931 73.094 61.2421 73.113 61.0922L73.245 60.0493C73.4095 60.358 73.5242 60.6907 73.5849 61.0352C73.7048 61.55 73.8528 62.0577 74.0282 62.5563C74.1274 62.8571 74.2267 63.158 74.3343 63.4556C74.4031 63.6263 74.4557 63.803 74.4916 63.9834C74.5148 64.128 74.5159 64.2758 74.5328 64.4204C74.5676 64.7324 74.6761 65.0316 74.8494 65.2934C74.8811 65.3544 74.9341 65.4018 74.9983 65.4264C75.0414 65.4341 75.0857 65.4323 75.1281 65.4211C75.5949 65.3289 76.0468 65.1726 76.4708 64.9567C76.5268 64.9291 76.5795 64.8955 76.6281 64.8564C76.684 65.0675 76.8118 65.2987 76.6978 65.4844C76.6393 65.5627 76.5609 65.624 76.4708 65.6618C76.0468 65.8777 75.5949 66.034 75.1281 66.1262C75.0854 66.1357 75.041 66.1357 74.9983 66.1262C74.9341 66.1016 74.8811 66.0543 74.8494 65.9932C74.6763 65.7314 74.5677 65.4322 74.5328 65.1203C74.5159 64.9757 74.5148 64.8279 74.4916 64.6833C74.4559 64.5028 74.4032 64.3261 74.3343 64.1555C74.2288 63.8568 74.1232 63.557 74.0282 63.2561C73.853 62.76 73.705 62.2547 73.5849 61.7424Z" fill="black"/>
<path opacity="0.1" d="M73.4761 64.6169C73.4761 64.6634 73.4761 64.7109 73.4761 64.7584C73.4782 64.7109 73.4771 64.6644 73.4761 64.6169Z" fill="black"/>
<path opacity="0.1" d="M65.8201 66.3924C65.9362 66.6974 65.932 67.0331 65.9257 67.3593C65.9257 67.4448 65.9257 67.5292 65.9257 67.6147C65.9167 67.4387 65.8811 67.265 65.8201 67.0996C65.7716 66.9729 65.7029 66.8547 65.6597 66.727C65.5858 66.5034 65.5887 66.2615 65.6681 66.0398C65.7114 66.1601 65.7737 66.2731 65.8201 66.3924Z" fill="black"/>
<path opacity="0.1" d="M60.2794 59.2134L60.3396 59.1353L60.6562 59.663C60.7839 59.8988 60.9403 60.1179 61.1217 60.3154C61.3065 60.5133 61.5581 60.6355 61.8279 60.6584C61.998 60.6567 62.1664 60.6246 62.3251 60.5634C63.064 60.3154 63.7343 59.9217 64.4362 59.586C64.5607 59.5138 64.7001 59.4712 64.8437 59.4614C64.9165 59.46 64.9878 59.4823 65.0468 59.525C65.1058 59.5676 65.1494 59.6283 65.1709 59.6979C65.2511 60.1022 65.3303 60.5054 65.4401 60.9023C65.5449 61.2781 65.6417 61.6549 65.7304 62.0328C65.7899 62.2648 65.8322 62.5008 65.857 62.739C65.8686 62.8741 65.8697 63.0103 65.8708 63.1454L65.8866 64.7847C65.8867 64.8087 65.8846 64.8328 65.8803 64.8565L65.8708 63.8526C65.8708 63.7164 65.8708 63.5813 65.857 63.4462C65.8322 63.208 65.7899 62.972 65.7304 62.74C65.6403 62.3621 65.5435 61.9853 65.4401 61.6095C65.3345 61.2126 65.2511 60.8094 65.1709 60.4041C65.1494 60.3346 65.1058 60.274 65.0467 60.2316C64.9877 60.1891 64.9164 60.167 64.8437 60.1687C64.6982 60.1765 64.5565 60.218 64.4299 60.29C63.7311 60.6257 63.0577 61.0194 62.3188 61.2665C62.1602 61.3284 61.9918 61.361 61.8216 61.3625C61.5518 61.3396 61.3002 61.2174 61.1154 61.0195C60.9342 60.8218 60.7779 60.6027 60.6499 60.3671C60.5222 60.1507 60.3934 59.9354 60.2646 59.719C60.1928 59.5987 60.0968 59.4593 60.1369 59.3242C60.1958 59.3049 60.2462 59.2657 60.2794 59.2134Z" fill="black"/>
</g>
<g opacity="0.1">
<path opacity="0.1" d="M65.7356 49.4619C65.7197 49.3704 65.6868 49.2826 65.6384 49.2033C65.668 49.1913 65.6976 49.1787 65.7271 49.1653C65.75 49.2626 65.7528 49.3635 65.7356 49.4619Z" fill="black"/>
<path opacity="0.1" d="M66.0924 50.9418C66.1325 51.2089 66.0702 51.5562 66.3035 51.6807C66.4956 51.7863 66.7257 51.6374 66.9147 51.7282C67.1036 51.819 67.1406 52.0269 67.2313 52.2043C67.3696 52.4893 67.4667 52.6951 67.794 52.7722C68.5835 52.9558 69.5388 52.3267 69.8755 51.648C70.1405 51.1149 70.1648 50.4985 70.1827 49.9031C70.1827 49.8736 70.1827 49.8451 70.1827 49.8155C70.1827 49.9306 70.1827 50.0467 70.1827 50.1607C70.1648 50.756 70.1405 51.3725 69.8755 51.9056C69.5388 52.5843 68.5835 53.2123 67.794 53.0287C67.4667 52.9527 67.3717 52.7458 67.2313 52.4608C67.1448 52.2834 67.1131 52.0776 66.9147 51.9847C66.7162 51.8918 66.4924 52.0417 66.3035 51.9383C66.066 51.8106 66.1283 51.4622 66.0924 51.1994C66.009 50.6494 65.3894 50.3243 65.2479 49.7881C65.2861 49.7932 65.3245 49.7957 65.363 49.7955C65.5899 50.1871 66.0238 50.489 66.0924 50.9418Z" fill="black"/>
</g>
<path d="M24.8523 81.4098C24.5618 81.2531 24.2488 81.1424 23.9244 81.0815C24.1599 81.0487 24.3922 80.9965 24.619 80.9253C25.2217 80.7342 25.5257 80.4788 25.2977 80.3532C25.0697 80.2275 24.3952 80.2803 23.7925 80.4714C23.589 80.5305 23.3944 80.6167 23.214 80.7279C23.1518 80.5959 22.9829 80.4429 22.7179 80.2972C22.1828 80.0027 21.4629 79.8549 21.1103 79.9658C20.7577 80.0766 20.9066 80.4059 21.4428 80.7047C21.7046 80.8454 21.9845 80.9494 22.2746 81.0139C22.0819 81.0376 21.8909 81.0729 21.7025 81.1195C21.047 81.2768 20.667 81.5153 20.858 81.6473C21.0491 81.7792 21.731 81.7666 22.3875 81.6093C22.6263 81.5572 22.8575 81.4753 23.0758 81.3654C23.1296 81.5016 23.3017 81.6642 23.5803 81.8172C24.1155 82.1107 24.8354 82.2595 25.188 82.1487C25.5405 82.0378 25.3875 81.7032 24.8523 81.4098Z" fill="#6C63FF"/>
<path d="M16.9884 71.2637C16.806 71.1655 16.6094 71.0964 16.4057 71.0589C16.5539 71.0387 16.7001 71.0059 16.8427 70.9607C17.2195 70.8414 17.4106 70.681 17.2649 70.6029C17.1193 70.5248 16.7013 70.5575 16.3234 70.6768C16.1963 70.7136 16.0749 70.7676 15.9624 70.8372C15.8852 70.7186 15.7751 70.6251 15.6457 70.568C15.3111 70.3833 14.8603 70.2904 14.6397 70.3569C14.4191 70.4234 14.5131 70.6324 14.8508 70.8172C15.0171 70.9055 15.1947 70.9705 15.3786 71.0103C15.2576 71.0247 15.1374 71.0458 15.0187 71.0737C14.6081 71.1718 14.3706 71.3217 14.4909 71.4062C14.6112 71.4906 15.0366 71.4811 15.4472 71.3829C15.5966 71.3506 15.7413 71.2995 15.8779 71.2309C15.9511 71.3559 16.062 71.4545 16.1946 71.5128C16.5303 71.6975 16.981 71.7904 17.2016 71.7239C17.4222 71.6574 17.324 71.4484 16.9884 71.2637Z" fill="#6C63FF"/>
<path d="M81.4341 86.811C83.3165 86.811 84.8425 86.5175 84.8425 86.1555C84.8425 85.7935 83.3165 85.5 81.4341 85.5C79.5516 85.5 78.0256 85.7935 78.0256 86.1555C78.0256 86.5175 79.5516 86.811 81.4341 86.811Z" fill="#6C63FF"/>
<path d="M81.3771 86.3963C81.5963 86.3963 81.774 86.1638 81.774 85.877C81.774 85.5902 81.5963 85.3577 81.3771 85.3577C81.1579 85.3577 80.9802 85.5902 80.9802 85.877C80.9802 86.1638 81.1579 86.3963 81.3771 86.3963Z" fill="#3F3D56"/>
<path d="M81.3771 85.7618C81.5963 85.7618 81.774 85.5293 81.774 85.2425C81.774 84.9557 81.5963 84.7231 81.3771 84.7231C81.1579 84.7231 80.9802 84.9557 80.9802 85.2425C80.9802 85.5293 81.1579 85.7618 81.3771 85.7618Z" fill="#3F3D56"/>
<path d="M81.3771 85.1263C81.5963 85.1263 81.774 84.8938 81.774 84.607C81.774 84.3202 81.5963 84.0876 81.3771 84.0876C81.1579 84.0876 80.9802 84.3202 80.9802 84.607C80.9802 84.8938 81.1579 85.1263 81.3771 85.1263Z" fill="#3F3D56"/>
<path d="M81.3771 84.492C81.5963 84.492 81.774 84.2595 81.774 83.9727C81.774 83.6859 81.5963 83.4534 81.3771 83.4534C81.1579 83.4534 80.9802 83.6859 80.9802 83.9727C80.9802 84.2595 81.1579 84.492 81.3771 84.492Z" fill="#3F3D56"/>
<path d="M81.3771 83.8565C81.5963 83.8565 81.774 83.624 81.774 83.3372C81.774 83.0504 81.5963 82.8179 81.3771 82.8179C81.1579 82.8179 80.9802 83.0504 80.9802 83.3372C80.9802 83.624 81.1579 83.8565 81.3771 83.8565Z" fill="#3F3D56"/>
<path d="M81.3771 83.2223C81.5963 83.2223 81.774 82.9898 81.774 82.7029C81.774 82.4161 81.5963 82.1836 81.3771 82.1836C81.1579 82.1836 80.9802 82.4161 80.9802 82.7029C80.9802 82.9898 81.1579 83.2223 81.3771 83.2223Z" fill="#3F3D56"/>
<path d="M81.3771 82.5868C81.5963 82.5868 81.774 82.3543 81.774 82.0674C81.774 81.7806 81.5963 81.5481 81.3771 81.5481C81.1579 81.5481 80.9802 81.7806 80.9802 82.0674C80.9802 82.3543 81.1579 82.5868 81.3771 82.5868Z" fill="#3F3D56"/>
<path d="M82.8622 77.7226C82.9164 77.6536 82.9658 77.5809 83.01 77.5051L81.9671 77.3341L83.0944 77.3426C83.2026 77.1072 83.2617 76.8522 83.2681 76.5932C83.2744 76.3342 83.2279 76.0767 83.1314 75.8363L81.6177 76.6216L83.0132 75.5956C82.8822 75.3704 82.7063 75.1746 82.4964 75.0203C82.2865 74.866 82.0471 74.7565 81.7931 74.6986C81.5392 74.6407 81.276 74.6357 81.02 74.6838C80.7639 74.7319 80.5206 74.8322 80.3049 74.9783C80.0893 75.1245 79.906 75.3134 79.7665 75.5334C79.6269 75.7534 79.5341 75.9997 79.4938 76.2571C79.4535 76.5144 79.4665 76.7773 79.5321 77.0294C79.5977 77.2816 79.7144 77.5175 79.875 77.7226C79.7904 77.8303 79.7175 77.9467 79.6575 78.0699L81.0118 78.7729L79.5678 78.2884C79.5016 78.485 79.4677 78.691 79.4675 78.8985C79.4667 79.3249 79.6103 79.739 79.875 80.0733C79.6548 80.3537 79.5179 80.6903 79.4799 81.0447C79.442 81.3991 79.5045 81.7571 79.6603 82.0777C79.8162 82.3983 80.059 82.6686 80.3612 82.8577C80.6634 83.0468 81.0127 83.1471 81.3691 83.1471C81.7256 83.1471 82.0749 83.0468 82.377 82.8577C82.6792 82.6686 82.9221 82.3983 83.0779 82.0777C83.2338 81.7571 83.2963 81.3991 83.2583 81.0447C83.2204 80.6903 83.0835 80.3537 82.8633 80.0733C83.1269 79.7382 83.2701 79.3242 83.2699 78.8978C83.2697 78.4714 83.1261 78.0575 82.8622 77.7226Z" fill="#6C63FF"/>
<path opacity="0.1" d="M79.4675 78.8976C79.4667 79.324 79.6103 79.7381 79.875 80.0725C79.6548 80.3528 79.5179 80.6894 79.4799 81.0438C79.442 81.3983 79.5045 81.7562 79.6603 82.0768C79.8162 82.3974 80.059 82.6677 80.3612 82.8568C80.6634 83.0459 81.0127 83.1462 81.3691 83.1462C81.7256 83.1462 82.0749 83.0459 82.377 82.8568C82.6792 82.6677 82.9221 82.3974 83.078 82.0768C83.2338 81.7562 83.2963 81.3983 83.2583 81.0438C83.2204 80.6894 83.0835 80.3528 82.8633 80.0725C83.1177 79.7495 79.4675 78.6844 79.4675 78.8976Z" fill="black"/>
</g>
<defs>
<linearGradient id="paint0_linear" x1="67.6261" y1="89.9883" x2="67.6261" y2="48.0684" gradientUnits="userSpaceOnUse">
<stop stop-color="#808080" stop-opacity="0.25"/>
<stop offset="0.54" stop-color="#808080" stop-opacity="0.12"/>
<stop offset="1" stop-color="#808080" stop-opacity="0.1"/>
</linearGradient>
<clipPath id="clip0">
<rect width="119.279" height="90" fill="white"/>
</clipPath>
</defs>
</svg>
