<svg width="392" height="142" viewBox="0 0 392 142" fill="none" xmlns="http://www.w3.org/2000/svg">
<g filter="url(#filter0_d)">
<g opacity="0.7">
<path opacity="0.7" d="M160.894 126.469H286.402L285.533 67.8305L249.639 61.9038H198.892L161.763 66.1014L160.894 126.469Z" fill="url(#paint0_linear)"/>
</g>
<path d="M162.632 125.73H284.664L283.795 68.5698L249.524 62.6431H198.274L163.5 66.8406L162.632 125.73Z" fill="#EEEEEE"/>
<g opacity="0.7">
<path opacity="0.7" d="M237.883 40.916H247.041V58.9426H237.883V40.916Z" fill="url(#paint1_linear)"/>
</g>
<g opacity="0.7">
<path opacity="0.7" d="M247.045 81.8805V62.3967H286.824L293.579 81.8805V83.8773H246.794V81.8805H247.045Z" fill="url(#paint2_linear)"/>
</g>
<path d="M247.041 81.9017H293.085L286.402 62.6431H247.041V81.9017Z" fill="#6C63FF"/>
<path opacity="0.1" d="M247.041 81.9017H293.085L286.402 62.6431H247.041V81.9017Z" fill="black"/>
<path d="M246.794 81.9019H293.085V83.8774H246.794V81.9019Z" fill="#6C63FF"/>
<g opacity="0.7">
<path opacity="0.7" d="M161.358 62.1504H201.243V81.8551H201.495V83.8774H154.581V81.8551L161.358 62.1504Z" fill="url(#paint3_linear)"/>
</g>
<path d="M201.248 81.9017H155.203L161.886 62.6431H201.248V81.9017Z" fill="#6C63FF"/>
<path opacity="0.1" d="M201.248 81.9017H155.203L161.886 62.6431H201.248V81.9017Z" fill="black"/>
<path d="M201.495 83.8774H155.203V81.9019H201.495V83.8774Z" fill="#6C63FF"/>
<path opacity="0.5" d="M255.705 91.6565H280.707V107.21H255.705V91.6565Z" fill="#6C63FF"/>
<path opacity="0.1" d="M254.222 106.101H282.194V108.816H254.222V106.101Z" fill="black"/>
<path d="M254.222 105.855H282.194V108.57H254.222V105.855Z" fill="#535461"/>
<g opacity="0.1">
<path opacity="0.1" d="M255.705 91.6565H280.707V97.8296H255.705V91.6565Z" fill="black"/>
</g>
<path opacity="0.5" d="M167.33 91.6565H192.333V107.21H167.33V91.6565Z" fill="#6C63FF"/>
<path opacity="0.1" d="M165.847 106.101H193.819V108.816H165.847V106.101Z" fill="black"/>
<path d="M165.847 105.855H193.819V108.57H165.847V105.855Z" fill="#535461"/>
<g opacity="0.1">
<path opacity="0.1" d="M167.33 91.6565H192.333V97.8296H167.33V91.6565Z" fill="black"/>
</g>
<g opacity="0.7">
<path opacity="0.7" d="M193.529 63.7986L224.065 40.2447L253.617 63.7816L255.934 60.8884L224.099 35.5374L191.259 60.8714L193.529 63.7986Z" fill="url(#paint4_linear)"/>
</g>
<path opacity="0.1" d="M251.126 83.8774H284.051V84.2471H251.126V83.8774Z" fill="black"/>
<path opacity="0.1" d="M163.245 83.8774H196.541V84.2471H163.245V83.8774Z" fill="black"/>
<path d="M238.13 41.1626H246.794V58.9385H238.13V41.1626Z" fill="#535461"/>
<g opacity="0.7">
<path opacity="0.7" d="M196.541 125.73H251.99V58.076L224.027 57.46L196.541 58.076V125.73Z" fill="url(#paint5_linear)"/>
</g>
<path d="M197.163 125.73H251.126V58.0759L224.142 38.9404L197.163 58.0759V125.73Z" fill="white"/>
<path d="M217.34 103.013H230.953V125.73H217.34V103.013Z" fill="#535461"/>
<path opacity="0.1" d="M210.158 82.6453H238.13V85.3601H210.158V82.6453Z" fill="black"/>
<path opacity="0.5" d="M211.641 68.2002H236.644V83.7541H211.641V68.2002Z" fill="#6C63FF"/>
<path d="M210.158 82.3989H238.13V85.1137H210.158V82.3989Z" fill="#535461"/>
<g opacity="0.1">
<path opacity="0.1" d="M211.641 68.2002H236.644V74.3733H211.641V68.2002Z" fill="black"/>
</g>
<path d="M193.529 64.0452L224.065 40.4913L253.617 64.0282L255.934 61.135L224.099 35.7839L191.259 61.118L193.529 64.0452Z" fill="#6C63FF"/>
<path d="M219.316 115.359C218.77 115.359 218.328 114.918 218.328 114.373C218.328 113.829 218.77 113.388 219.316 113.388C219.862 113.388 220.304 113.829 220.304 114.373C220.304 114.918 219.862 115.359 219.316 115.359Z" fill="#E0E0E0"/>
<g opacity="0.7">
<path opacity="0.7" d="M325.278 78.5708H381V127H325.278V78.5708Z" fill="url(#paint6_linear)"/>
</g>
<path d="M325.866 79.1104H380.046V126.452H325.866V79.1104Z" fill="#EEEEEE"/>
<g opacity="0.7">
<path opacity="0.7" d="M363.029 64.2661H369.747V77.4833H363.029V64.2661Z" fill="url(#paint7_linear)"/>
</g>
<path d="M363.213 64.4487H369.563V77.4832H363.213V64.4487Z" fill="#535461"/>
<g opacity="0.7">
<path opacity="0.7" d="M332.719 126.456H373.376V76.8503L352.871 76.3958L332.719 76.8503V126.456Z" fill="url(#paint8_linear)"/>
</g>
<path d="M333.171 126.456H372.741V76.8503L352.956 62.8174L333.171 76.8503V126.456Z" fill="white"/>
<path d="M347.964 109.798H357.948V126.452H347.964V109.798Z" fill="#535461"/>
<path opacity="0.5" d="M343.79 84.2725H362.122V95.6798H343.79V84.2725Z" fill="#6C63FF"/>
<path d="M342.703 94.6814H363.213V96.674H342.703V94.6814Z" fill="#535461"/>
<g opacity="0.1">
<path opacity="0.1" d="M343.79 84.2725H362.122V88.7972H343.79V84.2725Z" fill="black"/>
</g>
<g opacity="0.7">
<path opacity="0.7" d="M330.513 81.0479L352.9 63.7775L374.568 81.0351L376.268 78.9108L352.926 60.3235L328.847 78.8981L330.513 81.0479Z" fill="url(#paint9_linear)"/>
</g>
<path d="M330.513 81.2263L352.9 63.956L374.568 81.2136L376.268 79.0936L352.926 60.502L328.847 79.0808L330.513 81.2263Z" fill="#6C63FF"/>
<path d="M349.416 118.851C349.016 118.851 348.692 118.528 348.692 118.129C348.692 117.73 349.016 117.407 349.416 117.407C349.816 117.407 350.14 117.73 350.14 118.129C350.14 118.528 349.816 118.851 349.416 118.851Z" fill="#E0E0E0"/>
<g opacity="0.7">
<path opacity="0.7" d="M16.1923 126.609H119.449L118.738 49.7658L89.2075 41.9995H47.4522L16.9036 47.5014L16.1923 126.609Z" fill="url(#paint10_linear)"/>
</g>
<path d="M17.6192 125.641H118.023L117.307 50.7345L89.1095 42.9724H46.9454L18.3348 48.47L17.6192 125.641Z" fill="#EEEEEE"/>
<g opacity="0.7">
<path opacity="0.7" d="M79.5344 8.88623H87.0693V23.7179H79.5344V8.88623Z" fill="url(#paint11_linear)"/>
</g>
<g opacity="0.7">
<path opacity="0.7" d="M87.0691 54.5752V38.5454H119.799L125.357 54.5752V56.2193H86.8647V54.5752H87.0691Z" fill="url(#paint12_linear)"/>
</g>
<path d="M87.0692 54.5963H124.948L119.449 38.7493H87.0692V54.5963Z" fill="#6C63FF"/>
<path opacity="0.1" d="M87.0692 54.5963H124.948L119.449 38.7493H87.0692V54.5963Z" fill="black"/>
<path d="M86.8605 54.5964H124.948V56.2236H86.8605V54.5964Z" fill="#6C63FF"/>
<g opacity="0.7">
<path opacity="0.7" d="M16.5714 38.7493H49.386V54.9617H49.5947V56.6271H11.0001V54.9617L16.5714 38.7493Z" fill="url(#paint13_linear)"/>
</g>
<path d="M49.3903 55H11.5069L17.0058 39.1572H49.3903V55Z" fill="#6C63FF"/>
<path opacity="0.1" d="M49.3903 55H11.5069L17.0058 39.1572H49.3903V55Z" fill="black"/>
<path d="M49.5947 56.6272L11.5068 56.6272V55L49.5947 55V56.6272Z" fill="#6C63FF"/>
<path opacity="0.5" d="M94.1995 97.9656H114.768V110.762H94.1995V97.9656Z" fill="#6C63FF"/>
<path opacity="0.1" d="M92.9728 109.849H115.987V112.083H92.9728V109.849Z" fill="black"/>
<path d="M92.9728 109.649H115.987V111.884H92.9728V109.649Z" fill="#535461"/>
<g opacity="0.1">
<path opacity="0.1" d="M94.1995 97.9656H114.768V103.043H94.1995V97.9656Z" fill="black"/>
</g>
<path opacity="0.5" d="M21.4867 97.9656H42.0554V110.762H21.4867V97.9656Z" fill="#6C63FF"/>
<path opacity="0.1" d="M20.2642 109.849H43.278V112.083H20.2642V109.849Z" fill="black"/>
<path d="M20.2642 109.649H43.278V111.884H20.2642V109.649Z" fill="#535461"/>
<g opacity="0.1">
<path opacity="0.1" d="M21.4867 97.9656H42.0554V103.043H21.4867V97.9656Z" fill="black"/>
</g>
<path opacity="0.5" d="M21.4867 68.1025H42.0554V80.8991H21.4867V68.1025Z" fill="#6C63FF"/>
<path opacity="0.1" d="M20.2642 79.99H43.278V82.2247H20.2642V79.99Z" fill="black"/>
<path d="M20.2642 79.7859H43.278V82.0206H20.2642V79.7859Z" fill="#535461"/>
<g opacity="0.1">
<path opacity="0.1" d="M21.4867 68.1025H42.0554V73.1796H21.4867V68.1025Z" fill="black"/>
</g>
<path opacity="0.5" d="M93.5862 68.1025H114.155V80.8991H93.5862V68.1025Z" fill="#6C63FF"/>
<path opacity="0.1" d="M92.3637 79.99H115.377V82.2247H92.3637V79.99Z" fill="black"/>
<path d="M92.3637 79.7859H115.377V82.0206H92.3637V79.7859Z" fill="#535461"/>
<g opacity="0.1">
<path opacity="0.1" d="M93.5862 68.1025H114.155V73.1796H93.5862V68.1025Z" fill="black"/>
</g>
<g opacity="0.7">
<path opacity="0.7" d="M43.0437 30.2523L68.1616 10.8747L92.4787 30.2395L94.387 27.8603L68.1914 7L41.1738 27.8433L43.0437 30.2523Z" fill="url(#paint14_linear)"/>
</g>
<path opacity="0.1" d="M90.4299 56.2192H117.516V56.5251H90.4299V56.2192Z" fill="black"/>
<path opacity="0.1" d="M18.126 56.6272H45.5184V56.9331H18.126V56.6272Z" fill="black"/>
<path d="M79.7345 9.09033H86.8647V23.7181H79.7345V9.09033Z" fill="#535461"/>
<g opacity="0.7">
<path opacity="0.7" d="M45.4163 126.002H91.0391V27.6606L68.0296 26.7642L45.4163 27.6606V126.002Z" fill="url(#paint15_linear)"/>
</g>
<path d="M46.0296 126.002H90.4299V27.2698L68.2298 10.6155L45.6207 27.8815L46.0296 126.002Z" fill="white"/>
<path d="M62.6286 107.312H73.8309V126.002H62.6286V107.312Z" fill="#535461"/>
<path opacity="0.1" d="M56.7208 90.5518H79.7345V92.7865H56.7208V90.5518Z" fill="black"/>
<path opacity="0.5" d="M57.9431 78.6687H78.512V91.4653H57.9431V78.6687Z" fill="#6C63FF"/>
<path d="M56.7208 90.3479H79.7345V92.5826H56.7208V90.3479Z" fill="#535461"/>
<g opacity="0.1">
<path opacity="0.1" d="M57.9431 78.6687H78.512V83.7457H57.9431V78.6687Z" fill="black"/>
</g>
<path opacity="0.5" d="M57.9431 53.5811H78.512V66.3777H57.9431V53.5811Z" fill="#6C63FF"/>
<path d="M56.7208 65.2603H79.7345V67.495H56.7208V65.2603Z" fill="#535461"/>
<g opacity="0.1">
<path opacity="0.1" d="M57.9431 53.5811H78.512V58.6581H57.9431V53.5811Z" fill="black"/>
</g>
<path opacity="0.5" d="M57.9431 28.489H78.512V41.2856H57.9431V28.489Z" fill="#6C63FF"/>
<path d="M56.7208 40.1726H79.7345V42.4073H56.7208V40.1726Z" fill="#535461"/>
<g opacity="0.1">
<path opacity="0.1" d="M57.9431 28.489H78.512V33.566H57.9431V28.489Z" fill="black"/>
</g>
<path d="M43.0437 30.966L68.1616 11.5841L92.4787 30.949L94.387 28.5698L68.1914 7.70947L41.1738 28.5528L43.0437 30.966Z" fill="#6C63FF"/>
<path d="M64.2556 117.466C63.8063 117.466 63.4421 117.103 63.4421 116.655C63.4421 116.207 63.8063 115.843 64.2556 115.843C64.705 115.843 65.0692 116.207 65.0692 116.655C65.0692 117.103 64.705 117.466 64.2556 117.466Z" fill="#E0E0E0"/>
</g>
<defs>
<filter id="filter0_d" x="0" y="0" width="392" height="142" filterUnits="userSpaceOnUse" color-interpolation-filters="sRGB">
<feFlood flood-opacity="0" result="BackgroundImageFix"/>
<feColorMatrix in="SourceAlpha" type="matrix" values="0 0 0 0 0 0 0 0 0 0 0 0 0 0 0 0 0 0 127 0"/>
<feOffset dy="4"/>
<feGaussianBlur stdDeviation="5.5"/>
<feColorMatrix type="matrix" values="0 0 0 0 0 0 0 0 0 0 0 0 0 0 0 0 0 0 0.35 0"/>
<feBlend mode="normal" in2="BackgroundImageFix" result="effect1_dropShadow"/>
<feBlend mode="normal" in="SourceGraphic" in2="effect1_dropShadow" result="shape"/>
</filter>
<linearGradient id="paint0_linear" x1="223.648" y1="126.469" x2="223.648" y2="61.9038" gradientUnits="userSpaceOnUse">
<stop stop-color="#808080" stop-opacity="0.25"/>
<stop offset="0.54" stop-color="#808080" stop-opacity="0.12"/>
<stop offset="1" stop-color="#808080" stop-opacity="0.1"/>
</linearGradient>
<linearGradient id="paint1_linear" x1="-2731.53" y1="2244.66" x2="-2731.53" y2="1479.98" gradientUnits="userSpaceOnUse">
<stop stop-color="#808080" stop-opacity="0.25"/>
<stop offset="0.54" stop-color="#808080" stop-opacity="0.12"/>
<stop offset="1" stop-color="#808080" stop-opacity="0.1"/>
</linearGradient>
<linearGradient id="paint2_linear" x1="-11878.2" y1="3949.31" x2="-11878.2" y2="2863.25" gradientUnits="userSpaceOnUse">
<stop stop-color="#808080" stop-opacity="0.25"/>
<stop offset="0.54" stop-color="#808080" stop-opacity="0.12"/>
<stop offset="1" stop-color="#808080" stop-opacity="0.1"/>
</linearGradient>
<linearGradient id="paint3_linear" x1="-22152.7" y1="3993.66" x2="-22152.7" y2="2882.54" gradientUnits="userSpaceOnUse">
<stop stop-color="#808080" stop-opacity="0.25"/>
<stop offset="0.54" stop-color="#808080" stop-opacity="0.12"/>
<stop offset="1" stop-color="#808080" stop-opacity="0.1"/>
</linearGradient>
<linearGradient id="paint4_linear" x1="-23644.2" y1="3813.79" x2="-23644.2" y2="1933.85" gradientUnits="userSpaceOnUse">
<stop stop-color="#808080" stop-opacity="0.25"/>
<stop offset="0.54" stop-color="#808080" stop-opacity="0.12"/>
<stop offset="1" stop-color="#808080" stop-opacity="0.1"/>
</linearGradient>
<linearGradient id="paint5_linear" x1="-20151.7" y1="19136.1" x2="-20151.7" y2="8165.86" gradientUnits="userSpaceOnUse">
<stop stop-color="#808080" stop-opacity="0.25"/>
<stop offset="0.54" stop-color="#808080" stop-opacity="0.12"/>
<stop offset="1" stop-color="#808080" stop-opacity="0.1"/>
</linearGradient>
<linearGradient id="paint6_linear" x1="-3263.77" y1="13757.4" x2="-3263.77" y2="8236.94" gradientUnits="userSpaceOnUse">
<stop stop-color="#808080" stop-opacity="0.25"/>
<stop offset="0.54" stop-color="#808080" stop-opacity="0.12"/>
<stop offset="1" stop-color="#808080" stop-opacity="0.1"/>
</linearGradient>
<linearGradient id="paint7_linear" x1="139.349" y1="2257" x2="139.349" y2="1845.81" gradientUnits="userSpaceOnUse">
<stop stop-color="#808080" stop-opacity="0.25"/>
<stop offset="0.54" stop-color="#808080" stop-opacity="0.12"/>
<stop offset="1" stop-color="#808080" stop-opacity="0.1"/>
</linearGradient>
<linearGradient id="paint8_linear" x1="-2294.49" y1="14151.9" x2="-2294.49" y2="8253.29" gradientUnits="userSpaceOnUse">
<stop stop-color="#808080" stop-opacity="0.25"/>
<stop offset="0.54" stop-color="#808080" stop-opacity="0.12"/>
<stop offset="1" stop-color="#808080" stop-opacity="0.1"/>
</linearGradient>
<linearGradient id="paint9_linear" x1="-2790.46" y1="3672.37" x2="-2790.46" y2="2661.44" gradientUnits="userSpaceOnUse">
<stop stop-color="#808080" stop-opacity="0.25"/>
<stop offset="0.54" stop-color="#808080" stop-opacity="0.12"/>
<stop offset="1" stop-color="#808080" stop-opacity="0.1"/>
</linearGradient>
<linearGradient id="paint10_linear" x1="-75801.4" y1="23862.2" x2="-75801.4" y2="7012.14" gradientUnits="userSpaceOnUse">
<stop stop-color="#808080" stop-opacity="0.25"/>
<stop offset="0.54" stop-color="#808080" stop-opacity="0.12"/>
<stop offset="1" stop-color="#808080" stop-opacity="0.1"/>
</linearGradient>
<linearGradient id="paint11_linear" x1="-5179.25" y1="592.512" x2="-5179.25" y2="74.7387" gradientUnits="userSpaceOnUse">
<stop stop-color="#808080" stop-opacity="0.25"/>
<stop offset="0.54" stop-color="#808080" stop-opacity="0.12"/>
<stop offset="1" stop-color="#808080" stop-opacity="0.1"/>
</linearGradient>
<linearGradient id="paint12_linear" x1="-24716.6" y1="2086.07" x2="-24716.6" y2="1350.83" gradientUnits="userSpaceOnUse">
<stop stop-color="#808080" stop-opacity="0.25"/>
<stop offset="0.54" stop-color="#808080" stop-opacity="0.12"/>
<stop offset="1" stop-color="#808080" stop-opacity="0.1"/>
</linearGradient>
<linearGradient id="paint13_linear" x1="-31727.7" y1="2127.06" x2="-31727.7" y2="1374.76" gradientUnits="userSpaceOnUse">
<stop stop-color="#808080" stop-opacity="0.25"/>
<stop offset="0.54" stop-color="#808080" stop-opacity="0.12"/>
<stop offset="1" stop-color="#808080" stop-opacity="0.1"/>
</linearGradient>
<linearGradient id="paint14_linear" x1="-39036.4" y1="1279.6" x2="-39036.4" y2="7" gradientUnits="userSpaceOnUse">
<stop stop-color="#808080" stop-opacity="0.25"/>
<stop offset="0.54" stop-color="#808080" stop-opacity="0.12"/>
<stop offset="1" stop-color="#808080" stop-opacity="0.1"/>
</linearGradient>
<linearGradient id="paint15_linear" x1="-33409.8" y1="27823.2" x2="-33409.8" y2="4643.29" gradientUnits="userSpaceOnUse">
<stop stop-color="#808080" stop-opacity="0.25"/>
<stop offset="0.54" stop-color="#808080" stop-opacity="0.12"/>
<stop offset="1" stop-color="#808080" stop-opacity="0.1"/>
</linearGradient>
</defs>
</svg>
