<svg width="140" height="81" viewBox="0 0 140 81" fill="none" xmlns="http://www.w3.org/2000/svg">
<g clip-path="url(#clip0)">
<path opacity="0.5" d="M34.7416 52.8463C26.2771 49.9216 16.5989 47.4459 8.69049 51.6488C7.68818 52.1815 6.70055 52.8522 6.16051 53.8501C4.73409 56.4754 7.00139 59.8801 5.89636 62.6551C4.79132 65.4302 0.632415 66.8272 0.972877 69.7916C1.06239 70.5664 1.4821 71.2679 1.97665 71.8725C5.07455 75.6572 10.7538 76.0402 15.554 75.101C20.3542 74.1618 25.0488 72.2144 29.9356 72.4595C34.6316 72.7016 38.9519 74.9543 43.2546 76.8503C50.5085 80.0553 58.9804 82.3549 66.2284 79.1337C69.5494 77.6574 72.2951 75.1436 75.4737 73.3884C79.7573 71.0449 84.6812 70.1414 89.5177 70.8115C92.7462 71.2664 95.828 72.4111 98.9876 73.2006C106.164 74.9924 113.654 74.9337 121.049 74.8633C122.425 74.8501 123.824 74.8339 125.143 74.4406C127.096 73.8536 128.707 72.5021 130.259 71.1798C132.297 69.4438 134.444 67.536 135.101 64.94C135.878 61.8582 134.271 58.5828 131.888 56.4886C129.504 54.3945 126.458 53.2499 123.485 52.1463C122.751 51.8763 121.967 51.6019 121.216 51.8058C120.723 51.9408 120.307 52.2696 119.939 52.6232C117.829 54.6543 116.046 58.0897 113.168 57.5379C112.141 57.3413 111.3 56.6266 110.487 55.9662C106.146 52.4442 100.307 49.7249 95.0678 51.6708C91.2362 53.0943 88.5316 56.7499 84.6486 58.0398C81.8867 58.9585 78.8857 58.5608 75.98 58.7398C71.7536 58.9981 67.6402 60.492 63.4079 60.401C52.6159 60.1691 43.6244 49.8497 32.8764 50.8329C32.0341 50.9092 31.1154 51.1029 30.5989 51.7692" fill="#6C63FF"/>
<path d="M21.1322 43.0302C21.1322 43.0302 12.1642 48.4438 28.7016 56.7822C28.7016 56.7822 32.3454 50.017 28.3171 44.5007C27.5353 43.4259 26.3866 42.6751 25.0884 42.3905C23.7901 42.106 22.4327 42.3075 21.2731 42.9568L21.1322 43.0302Z" fill="#6C63FF"/>
<path d="M21.2393 42.9172C21.2393 42.9172 28.9172 48.7873 28.703 56.7778" stroke="#535461" stroke-miterlimit="10"/>
<path d="M134.592 38.5205C136.409 45.1639 128.659 64.0903 128.659 64.0903C128.659 64.0903 112.352 51.7442 110.534 45.1008C110.058 43.508 109.906 41.8361 110.086 40.1835C110.265 38.5309 110.773 36.9309 111.58 35.4775C112.387 34.0241 113.476 32.7466 114.784 31.7202C116.092 30.6937 117.591 29.939 119.194 29.5003C120.798 29.0616 122.473 28.9478 124.121 29.1657C125.769 29.3835 127.357 29.9285 128.791 30.7688C130.225 31.609 131.477 32.7274 132.473 34.0584C133.469 35.3893 134.189 36.9059 134.591 38.5191L134.592 38.5205Z" fill="#6C63FF"/>
<path opacity="0.1" d="M134.592 38.5205C136.409 45.1639 128.659 64.0903 128.659 64.0903C128.659 64.0903 112.352 51.7442 110.534 45.1008C110.058 43.508 109.906 41.8361 110.086 40.1835C110.265 38.5309 110.773 36.9309 111.58 35.4775C112.387 34.0241 113.476 32.7466 114.784 31.7202C116.092 30.6937 117.591 29.939 119.194 29.5003C120.798 29.0616 122.473 28.9478 124.121 29.1657C125.769 29.3835 127.357 29.9285 128.791 30.7688C130.225 31.609 131.477 32.7274 132.473 34.0584C133.469 35.3893 134.189 36.9059 134.591 38.5191L134.592 38.5205Z" fill="black"/>
<path d="M119.339 29.8198C119.339 29.8198 129.49 45.1435 128.731 64.1272" stroke="#535461" stroke-miterlimit="10"/>
<path d="M137.182 50.6628C137.182 50.6628 127.978 45.6556 129.143 64.1389C129.143 64.1389 136.821 63.8645 139.547 57.6011C140.079 56.383 140.147 55.0117 139.736 53.7472C139.325 52.4826 138.465 51.4128 137.317 50.7405L137.182 50.6628Z" fill="#6C63FF"/>
<path d="M137.333 50.6951C137.333 50.6951 136.145 60.2896 129.143 64.1389" stroke="#535461" stroke-miterlimit="10"/>
<path d="M2.4302 48.6023C2.4302 48.6023 -6.54213 54.0144 9.99665 62.3484C9.99665 62.3484 13.6405 55.5832 9.61217 50.0668C8.83044 48.992 7.68166 48.2412 6.38345 47.9567C5.08523 47.6722 3.72775 47.8737 2.56814 48.523L2.4302 48.6023Z" fill="#6C63FF"/>
<path d="M2.53296 48.4893C2.53296 48.4893 10.2109 54.3593 9.99669 62.3499" stroke="#535461" stroke-miterlimit="10"/>
<path d="M114.382 55.6479H104.953C105.17 55.2116 105.283 54.7308 105.282 54.2435V11.3102C105.282 10.473 104.949 9.67009 104.357 9.07811C103.765 8.48613 102.962 8.15356 102.125 8.15356H29.1418C28.3046 8.15356 27.5017 8.48613 26.9097 9.07811C26.3178 9.67009 25.9852 10.473 25.9852 11.3102V54.245C25.9844 54.7323 26.097 55.213 26.3139 55.6494H16.5521C16.442 55.6494 16.3331 55.6711 16.2315 55.7133C16.1299 55.7556 16.0377 55.8175 15.9601 55.8955C15.8825 55.9735 15.821 56.0661 15.7793 56.1679C15.7376 56.2697 15.7165 56.3788 15.7171 56.4888V57.1624C15.7171 58.4008 16.209 59.5886 17.0847 60.4643C17.9605 61.34 19.1482 61.832 20.3867 61.832H110.547C111.786 61.832 112.973 61.34 113.849 60.4643C114.725 59.5886 115.217 58.4008 115.217 57.1624V56.4888C115.218 56.3786 115.197 56.2694 115.155 56.1674C115.113 56.0654 115.052 55.9727 114.974 55.8945C114.897 55.8164 114.804 55.7543 114.703 55.712C114.601 55.6697 114.492 55.6479 114.382 55.6479ZM56.2848 58.3188L55.4718 57.4016H75.5443L74.6491 58.3202L56.2848 58.3188Z" fill="url(#paint0_linear)"/>
<path d="M100.967 8.76099H30.2923C28.4071 8.76099 26.8789 10.2892 26.8789 12.1744V53.4803C26.8789 55.3655 28.4071 56.8937 30.2923 56.8937H100.967C102.853 56.8937 104.381 55.3655 104.381 53.4803V12.1744C104.381 10.2892 102.853 8.76099 100.967 8.76099Z" fill="#535461"/>
<path d="M102.586 15.7771H28.5107V55.0989H102.586V15.7771Z" fill="white"/>
<path d="M65.549 13.0036C65.9097 13.0036 66.2021 12.7112 66.2021 12.3505C66.2021 11.9899 65.9097 11.6975 65.549 11.6975C65.1884 11.6975 64.896 11.9899 64.896 12.3505C64.896 12.7112 65.1884 13.0036 65.549 13.0036Z" fill="white"/>
<path d="M76.9853 55.1797L74.4406 57.7904H56.4989L54.1993 55.1797H17.6599C17.4435 55.1797 17.236 55.2657 17.083 55.4187C16.93 55.5717 16.844 55.7792 16.844 55.9956V56.6531C16.844 57.8635 17.3248 59.0244 18.1807 59.8803C19.0366 60.7362 20.1975 61.217 21.4079 61.217H109.526C110.125 61.217 110.719 61.099 111.272 60.8696C111.826 60.6402 112.329 60.3041 112.753 59.8803C113.177 59.4565 113.513 58.9533 113.742 58.3996C113.972 57.8459 114.09 57.2524 114.09 56.6531V55.9956C114.09 55.7792 114.004 55.5717 113.851 55.4187C113.698 55.2657 113.49 55.1797 113.274 55.1797H76.9853Z" fill="#535461"/>
<path d="M37.9746 18.2249V51.6722H93.2849" stroke="#535461" stroke-width="2" stroke-miterlimit="10"/>
<path opacity="0.5" d="M48.5787 41.5569H42.8687V50.3678H48.5787V41.5569Z" fill="#6C63FF"/>
<path opacity="0.7" d="M58.3685 33.7249H52.6584V50.3678H58.3685V33.7249Z" fill="#6C63FF"/>
<path opacity="0.5" d="M68.1583 38.4561H62.4482V50.3663H68.1583V38.4561Z" fill="#6C63FF"/>
<path opacity="0.8" d="M77.9481 31.114H72.238V50.3677H77.9481V31.114Z" fill="#6C63FF"/>
<path d="M87.7379 24.2607H82.0278V50.3662H87.7379V24.2607Z" fill="#6C63FF"/>
<path d="M45.6423 36.1724L55.595 27.1986L65.3847 35.6823L75.0115 25.4039L84.8013 21.3242" stroke="#535461" stroke-width="2" stroke-miterlimit="10"/>
<path d="M45.6425 37.3142C46.273 37.3142 46.7842 36.803 46.7842 36.1725C46.7842 35.5419 46.273 35.0308 45.6425 35.0308C45.0119 35.0308 44.5007 35.5419 44.5007 36.1725C44.5007 36.803 45.0119 37.3142 45.6425 37.3142Z" fill="#6C63FF"/>
<path d="M65.2218 36.6611C65.8523 36.6611 66.3635 36.15 66.3635 35.5194C66.3635 34.8889 65.8523 34.3777 65.2218 34.3777C64.5912 34.3777 64.0801 34.8889 64.0801 35.5194C64.0801 36.15 64.5912 36.6611 65.2218 36.6611Z" fill="#6C63FF"/>
<path d="M75.1744 26.5456C75.805 26.5456 76.3162 26.0345 76.3162 25.4039C76.3162 24.7734 75.805 24.2622 75.1744 24.2622C74.5439 24.2622 74.0327 24.7734 74.0327 25.4039C74.0327 26.0345 74.5439 26.5456 75.1744 26.5456Z" fill="#6C63FF"/>
<path d="M55.5948 28.176C56.2254 28.176 56.7366 27.6648 56.7366 27.0343C56.7366 26.4037 56.2254 25.8926 55.5948 25.8926C54.9643 25.8926 54.4531 26.4037 54.4531 27.0343C54.4531 27.6648 54.9643 28.176 55.5948 28.176Z" fill="#6C63FF"/>
<path d="M84.8011 22.466C85.4317 22.466 85.9429 21.9549 85.9429 21.3243C85.9429 20.6938 85.4317 20.1826 84.8011 20.1826C84.1706 20.1826 83.6594 20.6938 83.6594 21.3243C83.6594 21.9549 84.1706 22.466 84.8011 22.466Z" fill="#6C63FF"/>
<path d="M127.278 56.609C126.677 56.4109 125.784 56.182 125.077 56.2627C124.403 56.0176 122.82 55.3822 121.738 54.4254C121.77 53.4846 121.746 52.5428 121.666 51.6048C121.113 45.3136 122.358 41.1664 122.358 41.1664C122.358 41.1664 123.335 38.0025 123.228 35.3771C123.291 35.496 123.326 35.5664 123.326 35.5664C123.411 33.3021 124.183 30.9585 124.761 29.4983C124.783 29.492 124.805 29.4842 124.826 29.4748L125.472 27.9428C125.523 27.8534 125.564 27.7583 125.593 27.6595L125.698 27.4174L125.667 27.4042C125.677 27.3646 125.687 27.322 125.698 27.2794C126.11 25.5346 126.431 21.3962 126.431 21.3962C127.538 17.0407 124.911 14.3522 124.911 14.3522L120.453 10.5161C120.475 10.5661 120.49 10.619 120.497 10.6731L120.46 10.6409C120.397 10.4604 120.328 10.2446 120.261 9.9981C120.418 9.88518 120.565 9.759 120.701 9.62095C121.208 9.14223 121.556 8.52016 121.7 7.83793C121.787 7.30442 121.809 6.76246 121.766 6.22367L121.693 4.37315C121.69 4.01098 121.653 3.64991 121.583 3.29453C121.247 1.82703 119.743 0.799773 118.232 0.732268C117.752 0.72947 117.272 0.754952 116.794 0.808579C116.404 0.840657 116.012 0.848988 115.62 0.833526C115.576 0.835888 115.532 0.824073 115.494 0.799774C115.46 0.765877 115.441 0.720092 115.44 0.6721C115.432 0.586212 115.442 0.499654 115.469 0.417671C115.495 0.335688 115.539 0.259987 115.595 0.195161C115.654 0.143353 115.723 0.103931 115.798 0.0792287L115.691 0.104176C115.744 0.0625271 115.803 0.0302625 115.867 0.00878906C115.475 0.0776119 115.099 0.21418 114.754 0.412353C114.66 0.474716 114.572 0.548113 114.495 0.63101C114.29 0.811064 114.156 1.05908 114.119 1.32954C113.935 1.17431 113.798 0.971103 113.723 0.742542C113.699 0.649081 113.699 0.551306 113.723 0.457845C113.696 0.49013 113.671 0.523393 113.647 0.557635C113.647 0.547362 113.647 0.537091 113.647 0.526818C113.363 0.875415 113.162 1.28387 113.06 1.72137C113.02 1.67399 112.99 1.61923 112.972 1.56028C112.954 1.50133 112.948 1.43936 112.954 1.37797C112.932 1.44694 112.911 1.51592 112.892 1.58489C112.886 1.53915 112.886 1.49268 112.892 1.44694C112.719 1.976 112.641 2.53142 112.662 3.08761C112.662 3.64233 112.908 4.50669 113.503 4.70187C113.534 4.71214 113.564 4.71948 113.597 4.72682C113.262 5.24605 113.062 5.8401 113.014 6.45573C112.966 7.07136 113.071 7.68932 113.321 8.25421C113.57 8.8191 113.956 9.31327 114.443 9.69241C114.931 10.0716 115.505 10.3238 116.113 10.4266C116.123 10.4941 116.132 10.565 116.141 10.6394H116.165C116.181 10.7861 116.194 10.9476 116.203 11.1119C116.053 11.2589 115.889 11.3906 115.713 11.5052C115.214 11.8002 114.657 11.9843 114.081 12.0453C113.393 12.0993 112.724 12.2994 112.119 12.6323C111.407 13.03 110.622 13.6096 110.375 14.314C109.965 15.488 107.702 17.3151 106.184 17.5425L105.644 17.5117L105.605 17.5V17.5103L105.473 17.5029H105.465H105.43V17.5103L105.293 17.5029C105.293 17.5029 105.28 17.566 105.261 17.6776C104.498 17.4149 102.877 16.687 100.766 14.7719C98.4182 12.6396 95.2411 13.0593 94.0157 13.3279C93.974 13.3371 93.9361 13.3588 93.9071 13.39C93.8781 13.4213 93.8593 13.4607 93.8532 13.503C93.8471 13.5453 93.8541 13.5884 93.8732 13.6266C93.8923 13.6647 93.9225 13.6962 93.96 13.7168C94.4545 13.9882 95.2205 14.383 95.5742 14.427C95.5742 14.427 94.8405 15.1945 95.6212 15.601C95.7148 15.6463 95.8192 15.6649 95.9227 15.6548C96.0263 15.6447 96.125 15.6063 96.2082 15.5438C96.5868 15.2664 97.639 15.8945 99.1637 16.2218C99.1637 16.2218 103.466 20.6742 105.603 21.3581C105.652 21.4553 105.707 21.5498 105.766 21.6413L105.898 21.631V21.6413H105.954L105.97 21.788C105.97 21.788 109.292 21.6134 110.373 20.4071C110.449 20.3386 110.519 20.2635 110.582 20.1826L109.427 34.7109H109.438L109.427 34.8488H110.277C110.35 36.6356 110.273 38.4254 110.047 40.1994V49.6706C110.047 49.6706 110.003 50.5042 111.734 51.7251C113.55 52.9892 115.3 54.3455 116.976 55.7887L117.186 55.9706C116.868 58.869 116.201 64.2708 115.645 64.4719L115.989 64.5321C115.402 65.2761 113.735 67.3203 113.227 67.3746C112.605 67.4436 112.189 68.4121 113.227 68.6191C115.298 68.9777 117.429 68.7677 119.39 68.0115C119.586 67.9343 119.75 67.7938 119.857 67.6124C119.963 67.431 120.005 67.2191 119.977 67.0107L119.776 65.4845C119.814 65.5056 119.845 65.5379 119.864 65.5769C120.002 65.9922 119.864 65.0237 119.864 65.0237C120.433 63.1964 120.879 61.3335 121.201 59.4472L123.256 61.2228C123.256 61.2228 123.297 61.1715 123.369 61.0761C123.872 62.2178 124.77 64.5541 124.569 66.2652C124.293 68.6132 126.917 66.5411 126.643 65.1587C126.42 64.0405 127.418 59.3004 127.806 57.5277C127.848 57.3363 127.817 57.1361 127.72 56.9663C127.622 56.7964 127.465 56.669 127.278 56.609Z" fill="url(#paint1_linear)"/>
<path d="M105.807 18.2587C105.807 18.2587 103.849 17.9212 100.947 15.2885C98.6501 13.2061 95.5522 13.6155 94.3577 13.8782C94.317 13.887 94.2799 13.908 94.2515 13.9385C94.2231 13.969 94.2048 14.0074 94.1988 14.0486C94.1929 14.0898 94.1998 14.1319 94.2185 14.1691C94.2371 14.2063 94.2668 14.2369 94.3034 14.2568C94.7862 14.521 95.5346 14.9069 95.8853 14.9509C95.8853 14.9509 95.1619 15.6994 95.9308 16.1C96.0229 16.1452 96.1257 16.164 96.2278 16.1541C96.3299 16.1443 96.4273 16.1062 96.509 16.0442C96.8788 15.7742 97.9061 16.3876 99.3956 16.7061C99.3956 16.7061 105.201 22.714 106.551 21.6956L105.807 18.2587Z" fill="#FEC3BE"/>
<path d="M115.802 10.0905C115.802 10.0905 116.342 12.3856 115.802 14.0058L118.232 14.3433L120.393 13.2632V11.8456C120.393 11.8456 119.38 9.68544 119.65 7.18774L115.802 10.0905Z" fill="#FEC3BE"/>
<path d="M122.683 59.839C122.683 59.839 124.444 63.2818 124.168 65.577C123.893 67.8721 126.464 65.847 126.194 64.4969C125.975 63.4051 126.949 58.7736 127.329 57.0508C127.371 56.8646 127.341 56.6698 127.247 56.5041C127.152 56.3384 127 56.2137 126.819 56.1541C126.007 55.887 124.648 55.5598 123.966 56.0602C122.958 56.8013 122.683 59.839 122.683 59.839Z" fill="#8B416F"/>
<path d="M116.005 63.6193C116.005 63.6193 113.71 66.5895 113.102 66.657C112.495 66.7245 112.09 67.6696 113.102 67.8721C115.124 68.224 117.203 68.0211 119.119 67.2851C119.311 67.2103 119.472 67.0733 119.576 66.8961C119.681 66.7189 119.723 66.5117 119.696 66.3077L119.308 63.4167L116.005 63.6193Z" fill="#8B416F"/>
<path d="M112.225 32.0959L110.023 32.3894C110.325 34.9605 110.317 37.5586 109.997 40.1276V49.3729C109.997 49.3729 109.954 50.1874 111.645 51.3716C113.418 52.6041 115.126 53.9266 116.764 55.3339L122.889 60.6404C122.889 60.6404 125.319 57.6702 124.982 55.915C124.982 55.915 120.931 54.6324 120.391 52.5398C120.082 51.3423 118.511 50.3385 117.226 49.7075C116.418 49.315 115.768 48.6579 115.385 47.8453C115.002 47.0327 114.908 46.1135 115.12 45.2404C115.195 44.937 115.311 44.6452 115.465 44.3731C116.545 42.4829 118.098 38.2301 118.098 38.2301L115.127 32.5685L112.225 32.0959Z" fill="#4D4981"/>
<path opacity="0.05" d="M112.225 32.0959L110.023 32.3894C110.325 34.9605 110.317 37.5586 109.997 40.1276V49.3729C109.997 49.3729 109.954 50.1874 111.645 51.3716C113.418 52.6041 115.126 53.9266 116.764 55.3339L122.889 60.6404C122.889 60.6404 125.319 57.6702 124.982 55.915C124.982 55.915 120.931 54.6324 120.391 52.5398C120.082 51.3423 118.511 50.3385 117.226 49.7075C116.418 49.315 115.768 48.6579 115.385 47.8453C115.002 47.0327 114.908 46.1135 115.12 45.2404C115.195 44.937 115.311 44.6452 115.465 44.3731C116.545 42.4829 118.098 38.2301 118.098 38.2301L115.127 32.5685L112.225 32.0959Z" fill="black"/>
<path d="M115.465 63.8263C115.465 63.8263 119.448 64.5013 119.583 64.9064C119.718 65.3114 119.583 64.3663 119.583 64.3663C119.583 64.3663 121.878 57.4133 121.344 51.2718C120.809 45.1302 122.019 41.0785 122.019 41.0785C122.019 41.0785 123.436 36.4881 122.626 33.8554C121.816 31.2227 113.311 32.3703 113.311 32.3703C113.311 32.3703 116.281 39.3233 116.213 42.6311C116.213 42.6311 116.551 52.6219 117.158 53.7695C117.152 53.7636 116.207 63.5519 115.465 63.8263Z" fill="#4D4981"/>
<path d="M115.933 11.8457C115.933 11.8457 116.338 14.3405 120.388 13.2633L117.694 33.7834C117.694 33.7834 109.863 34.0535 109.931 33.1084L111.545 20.6889L115.933 11.8457Z" fill="white"/>
<path opacity="0.1" d="M116.039 11.7107C115.511 12.2299 114.824 12.5562 114.088 12.6367C113.416 12.6882 112.763 12.8823 112.172 13.2061C111.478 13.595 110.704 14.16 110.469 14.8482C109.997 16.1983 107.027 18.426 105.677 17.9535L106.149 22.0038C106.149 22.0038 109.997 21.8013 110.672 20.3161L109.526 34.7696H110.538C110.538 34.7696 111.078 30.8543 111.483 30.0442C111.888 29.2342 112.699 24.7788 112.766 23.6987C112.834 22.6187 113.846 16.4082 114.724 15.334L116.044 12.1275L116.039 11.7107Z" fill="black"/>
<path opacity="0.1" d="M116.039 11.9131C115.435 12.385 114.714 12.682 113.953 12.7716C113.281 12.8242 112.629 13.0193 112.038 13.3439C111.344 13.7328 110.571 14.2978 110.336 14.986C109.863 16.3361 106.893 18.5638 105.543 18.0913L106.016 22.1416C106.016 22.1416 109.863 21.9391 110.538 20.454L109.391 34.8986H110.403C110.403 34.8986 110.943 30.9833 111.348 30.1732C111.753 29.3632 112.564 24.9078 112.631 23.8278C112.699 22.7477 113.711 16.5372 114.589 15.463L116.039 12.3166V11.9131Z" fill="black"/>
<path d="M116.039 11.7781C115.435 12.25 114.714 12.547 113.953 12.6366C113.281 12.6881 112.628 12.8822 112.037 13.206C111.343 13.5948 110.569 14.1598 110.334 14.8481C109.862 16.1982 106.892 18.4259 105.542 17.9533L106.014 22.0037C106.014 22.0037 109.862 21.8011 110.537 20.316L109.391 34.7695H110.403C110.403 34.7695 110.943 30.8542 111.348 30.0441C111.753 29.234 112.564 24.7787 112.631 23.6986C112.699 22.6185 113.711 16.4081 114.589 15.3338L116.04 12.1948L116.039 11.7781Z" fill="#FD6F8D"/>
<path opacity="0.1" d="M119.481 9.17927C119.393 8.53944 119.569 8.14028 119.65 7.39038L115.802 10.2931C115.802 10.2931 115.895 10.6849 115.965 11.2587C116.159 11.2901 116.356 11.3058 116.552 11.3057C117.888 11.3057 118.849 10.2623 119.481 9.17927Z" fill="black"/>
<path d="M116.545 11.1045C118.558 11.1045 120.19 9.47248 120.19 7.45925C120.19 5.44601 118.558 3.81396 116.545 3.81396C114.532 3.81396 112.9 5.44601 112.9 7.45925C112.9 9.47248 114.532 11.1045 116.545 11.1045Z" fill="#FEC3BE"/>
<path opacity="0.1" d="M112.566 3.88594C112.543 3.2712 112.643 2.65799 112.86 2.08238C112.8 2.17294 112.774 2.28227 112.788 2.39017C112.802 2.49807 112.855 2.59725 112.936 2.66938C113.054 2.04204 113.376 1.47129 113.852 1.04632C113.592 1.08888 113.459 1.41026 113.523 1.66561C113.611 1.91502 113.767 2.13471 113.974 2.29957C113.952 1.91362 114.207 1.55261 114.53 1.34129C114.866 1.14807 115.234 1.01498 115.616 0.947998C115.485 0.994505 115.373 1.08307 115.297 1.19988C115.222 1.31668 115.187 1.45516 115.199 1.5937C115.2 1.64077 115.22 1.68553 115.253 1.71844C115.29 1.7419 115.333 1.7532 115.377 1.75072C115.757 1.76538 116.138 1.75705 116.517 1.72578C116.983 1.6733 117.452 1.64831 117.921 1.65093C119.389 1.71257 120.864 2.71488 121.192 4.14569C121.26 4.49286 121.296 4.84559 121.299 5.19936L121.371 7.00586C121.413 7.53289 121.391 8.06303 121.307 8.5849C121.205 9.06667 120.998 9.52007 120.701 9.91275C120.404 10.3054 120.024 10.6277 119.588 10.8566C119.059 10.0891 119.012 9.10292 118.828 8.18867C118.799 7.97768 118.721 7.77654 118.599 7.60167C118.536 7.5152 118.448 7.45039 118.347 7.41621C118.246 7.38203 118.137 7.38017 118.034 7.41089C117.836 7.49014 117.751 7.79244 117.915 7.92745C117.769 8.10062 117.494 7.97148 117.328 7.81739C116.865 7.37807 116.546 6.80851 116.414 6.18406C116.348 5.87001 116.282 5.48259 115.974 5.37546C115.868 5.34633 115.757 5.33884 115.648 5.35345C115.005 5.39747 114 5.66309 113.378 5.45911C112.807 5.27274 112.566 4.42745 112.566 3.88594Z" fill="black"/>
<path d="M112.634 3.81856C112.611 3.20382 112.71 2.5906 112.927 2.015C112.867 2.10556 112.842 2.21489 112.856 2.32279C112.87 2.43069 112.922 2.52986 113.004 2.602C113.121 1.97465 113.443 1.40391 113.919 0.978938C113.66 1.0215 113.526 1.34288 113.591 1.59823C113.678 1.84763 113.835 2.06733 114.041 2.23219C114.019 1.84623 114.275 1.48523 114.597 1.27391C114.934 1.08069 115.301 0.947598 115.683 0.880615C115.552 0.927122 115.44 1.01569 115.365 1.13249C115.29 1.2493 115.255 1.38778 115.267 1.52632C115.268 1.57339 115.287 1.61815 115.321 1.65106C115.358 1.67452 115.401 1.68581 115.444 1.68334C115.824 1.69799 116.205 1.68966 116.584 1.65839C117.051 1.60591 117.52 1.58092 117.989 1.58355C119.456 1.64518 120.931 2.64749 121.26 4.07831C121.328 4.42548 121.364 4.7782 121.367 5.13198L121.439 6.93848C121.481 7.46551 121.459 7.99565 121.374 8.51751C121.273 8.99928 121.066 9.45268 120.769 9.84536C120.472 10.238 120.092 10.5603 119.656 10.7892C119.126 10.0217 119.079 9.03554 118.896 8.12128C118.867 7.9103 118.788 7.70916 118.667 7.53428C118.604 7.44781 118.516 7.383 118.415 7.34882C118.314 7.31464 118.204 7.31278 118.102 7.34351C117.904 7.42275 117.819 7.72506 117.983 7.86007C117.836 8.03323 117.562 7.90409 117.396 7.75001C116.933 7.31069 116.614 6.74113 116.482 6.11667C116.416 5.80263 116.35 5.41521 116.041 5.30808C115.935 5.27894 115.825 5.27146 115.716 5.28606C115.073 5.33009 114.068 5.59571 113.445 5.39172C112.875 5.20388 112.634 4.36007 112.634 3.81856Z" fill="#784F69"/>
<path opacity="0.1" d="M105.367 17.9548C105.367 17.9548 104.827 20.4496 105.839 22.0051L106.413 21.9582L106.101 17.9959L105.367 17.9548Z" fill="black"/>
<path d="M105.514 17.9548C105.514 17.9548 104.974 20.4496 105.986 22.0051L106.56 21.9582L106.247 17.9959L105.514 17.9548Z" fill="#FD6F8D"/>
<path opacity="0.1" d="M120.021 11.1428L124.376 14.8894C124.376 14.8894 126.941 17.5221 125.861 21.7749C125.861 21.7749 125.388 27.9854 124.848 28.2554C124.848 28.2554 122.958 32.0357 122.823 35.6135C122.823 35.6135 120.291 30.5168 119.144 33.6221C117.996 36.7273 115.328 37.1661 115.328 37.1661L116.813 18.7988C116.813 18.7988 120.561 12.2845 120.021 11.1428Z" fill="black"/>
<path d="M120.156 11.1428L124.511 14.8894C124.511 14.8894 127.076 17.5221 125.996 21.7749C125.996 21.7749 125.523 27.9854 124.983 28.2554C124.983 28.2554 123.093 32.0357 122.958 35.6135C122.958 35.6135 120.291 30.2468 119.142 33.352C117.993 36.4573 115.463 37.1676 115.463 37.1676L116.948 18.8076C116.948 18.8076 120.697 12.2845 120.156 11.1428Z" fill="#FD6F8D"/>
<path d="M122.148 26.9669C122.148 26.9669 123.228 26.2243 124.983 28.2495L120.663 36.0801L119.211 33.8891C119.211 33.8891 122.283 27.8445 122.148 26.9669Z" fill="#FEC3BE"/>
<path opacity="0.1" d="M121.102 27.4056C121.102 27.4056 123.491 30.0882 124.423 29.6583L125.285 27.6493L122.047 26.2581L121.102 27.4056Z" fill="black"/>
<path d="M121.102 27.2706C121.102 27.2706 123.491 29.9532 124.423 29.5233L125.285 27.5142L122.047 26.123L121.102 27.2706Z" fill="#FD6F8D"/>
<path opacity="0.1" d="M119.358 33.377C119.358 33.377 120.495 35.7074 121.102 35.8424L120.221 36.8549L118.938 34.4248L119.358 33.377Z" fill="black"/>
<path d="M119.291 33.4487C119.291 33.4487 120.428 35.7791 121.034 35.9141L120.153 36.9267L118.868 34.4921L119.291 33.4487Z" fill="#4D4981"/>
<path opacity="0.1" d="M121.439 19.0349C121.439 19.0349 121.574 23.8953 121.034 25.7179L121.439 19.0349Z" fill="black"/>
<path opacity="0.1" d="M110.503 19.98C110.503 19.98 111.313 19.71 111.313 19.0349L110.503 19.98Z" fill="black"/>
<path d="M12.1349 20.793C12.1349 20.793 8.28712 28.7527 10.8142 38.1726C13.3412 47.5925 12.5385 58.8645 10.0188 61.6527" stroke="#535461" stroke-width="2" stroke-miterlimit="10"/>
<path d="M12.1347 21.8556C12.7207 21.8556 13.1957 21.3806 13.1957 20.7946C13.1957 20.2087 12.7207 19.7336 12.1347 19.7336C11.5488 19.7336 11.0737 20.2087 11.0737 20.7946C11.0737 21.3806 11.5488 21.8556 12.1347 21.8556Z" fill="#6C63FF"/>
<path d="M10.5352 25.9132C10.5352 25.9132 14.5238 26.6323 15.5848 25.1794" stroke="#535461" stroke-width="2" stroke-miterlimit="10"/>
<path d="M10.1566 28.2245C10.1566 28.2245 7.75722 25.5698 7.88929 23.9775" stroke="#535461" stroke-width="2" stroke-miterlimit="10"/>
<path d="M9.95264 33.0879C9.95264 33.0879 12.1348 33.6632 14.1262 29.4192" stroke="#535461" stroke-width="2" stroke-miterlimit="10"/>
<path d="M10.5353 36.6244C10.5353 36.6244 5.10552 33.1303 5.76736 30.8762" stroke="#535461" stroke-width="2" stroke-miterlimit="10"/>
<path d="M11.3835 40.6235C11.3835 40.6235 15.1873 37.2482 14.7896 33.9272" stroke="#535461" stroke-width="2" stroke-miterlimit="10"/>
<path d="M11.7972 42.9743C11.7972 42.9743 6.95442 41.6213 7.10117 39.4993" stroke="#535461" stroke-width="2" stroke-miterlimit="10"/>
<path d="M12.1348 45.7758C12.1348 45.7758 15.1857 42.9494 15.5834 41.2266" stroke="#535461" stroke-width="2" stroke-miterlimit="10"/>
<path d="M12.3475 50.582C12.3475 50.582 9.21728 46.9279 9.08374 45.0715" stroke="#535461" stroke-width="2" stroke-miterlimit="10"/>
<path d="M12.3477 53.6066C12.3477 53.6066 15.8506 49.7148 16.1147 47.8584" stroke="#535461" stroke-width="2" stroke-miterlimit="10"/>
<path d="M7.88937 25.3041C8.47535 25.3041 8.95038 24.8291 8.95038 24.2431C8.95038 23.6572 8.47535 23.1821 7.88937 23.1821C7.3034 23.1821 6.82837 23.6572 6.82837 24.2431C6.82837 24.8291 7.3034 25.3041 7.88937 25.3041Z" fill="#6C63FF"/>
<path d="M6.69626 40.5605C7.28224 40.5605 7.75727 40.0855 7.75727 39.4995C7.75727 38.9135 7.28224 38.4385 6.69626 38.4385C6.11028 38.4385 5.63525 38.9135 5.63525 39.4995C5.63525 40.0855 6.11028 40.5605 6.69626 40.5605Z" fill="#6C63FF"/>
<path d="M5.7673 31.9372C6.35328 31.9372 6.82831 31.4622 6.82831 30.8762C6.82831 30.2902 6.35328 29.8152 5.7673 29.8152C5.18133 29.8152 4.7063 30.2902 4.7063 30.8762C4.7063 31.4622 5.18133 31.9372 5.7673 31.9372Z" fill="#6C63FF"/>
<path d="M15.5849 26.2331C16.1709 26.2331 16.6459 25.7581 16.6459 25.1721C16.6459 24.5861 16.1709 24.1111 15.5849 24.1111C14.999 24.1111 14.5239 24.5861 14.5239 25.1721C14.5239 25.7581 14.999 26.2331 15.5849 26.2331Z" fill="#6C63FF"/>
<path d="M15.5849 42.5503C16.1709 42.5503 16.6459 42.0752 16.6459 41.4892C16.6459 40.9033 16.1709 40.4282 15.5849 40.4282C14.999 40.4282 14.5239 40.9033 14.5239 41.4892C14.5239 42.0752 14.999 42.5503 15.5849 42.5503Z" fill="#6C63FF"/>
<path d="M13.8606 30.4787C14.4465 30.4787 14.9216 30.0037 14.9216 29.4177C14.9216 28.8317 14.4465 28.3567 13.8606 28.3567C13.2746 28.3567 12.7996 28.8317 12.7996 29.4177C12.7996 30.0037 13.2746 30.4787 13.8606 30.4787Z" fill="#6C63FF"/>
<path d="M15.9826 49.5827C16.5686 49.5827 17.0436 49.1077 17.0436 48.5217C17.0436 47.9357 16.5686 47.4607 15.9826 47.4607C15.3967 47.4607 14.9216 47.9357 14.9216 48.5217C14.9216 49.1077 15.3967 49.5827 15.9826 49.5827Z" fill="#6C63FF"/>
<path d="M8.81833 46.7958C9.40431 46.7958 9.87933 46.3208 9.87933 45.7348C9.87933 45.1489 9.40431 44.6738 8.81833 44.6738C8.23235 44.6738 7.75732 45.1489 7.75732 45.7348C7.75732 46.3208 8.23235 46.7958 8.81833 46.7958Z" fill="#6C63FF"/>
<path d="M14.9216 34.9882C15.5076 34.9882 15.9826 34.5132 15.9826 33.9272C15.9826 33.3412 15.5076 32.8662 14.9216 32.8662C14.3356 32.8662 13.8606 33.3412 13.8606 33.9272C13.8606 34.5132 14.3356 34.9882 14.9216 34.9882Z" fill="#6C63FF"/>
</g>
<defs>
<linearGradient id="paint0_linear" x1="65.4669" y1="61.8261" x2="65.4669" y2="8.1521" gradientUnits="userSpaceOnUse">
<stop stop-color="#808080" stop-opacity="0.25"/>
<stop offset="0.54" stop-color="#808080" stop-opacity="0.12"/>
<stop offset="1" stop-color="#808080" stop-opacity="0.1"/>
</linearGradient>
<linearGradient id="paint1_linear" x1="29933.9" y1="44278.9" x2="29933.9" y2="12041.4" gradientUnits="userSpaceOnUse">
<stop stop-color="#808080" stop-opacity="0.25"/>
<stop offset="0.54" stop-color="#808080" stop-opacity="0.12"/>
<stop offset="1" stop-color="#808080" stop-opacity="0.1"/>
</linearGradient>
<clipPath id="clip0">
<rect width="140" height="80.6922" fill="white"/>
</clipPath>
</defs>
</svg>
