<svg width="108" height="88" viewBox="0 0 108 88" fill="none" xmlns="http://www.w3.org/2000/svg">
<g clip-path="url(#clip0)">
<path d="M102.202 71.9615C104.089 78.6815 85.9199 94.0348 53.9529 85.4639C28.215 78.5631 5.70435 75.6404 5.70435 71.9615C5.70435 68.2826 27.306 72.1415 53.9529 72.1415C80.5999 72.1415 101.207 68.4197 102.202 71.9615Z" fill="#3F3D56"/>
<path opacity="0.1" d="M102.202 71.9615C104.089 78.6815 85.9199 94.0348 53.9529 85.4639C28.215 78.5631 5.70435 75.6404 5.70435 71.9615C5.70435 68.2826 27.306 72.1415 53.9529 72.1415C80.5999 72.1415 101.207 68.4197 102.202 71.9615Z" fill="black"/>
<path d="M102.202 71.9615C104.089 78.6814 85.9199 87.1935 53.9529 78.6226C28.215 71.7219 5.70435 75.6403 5.70435 71.9615C5.70435 68.2826 27.306 65.3003 53.9529 65.3003C80.5999 65.3003 101.207 68.4197 102.202 71.9615Z" fill="#3F3D56"/>
<path opacity="0.1" d="M69.4676 76.7874C71.5285 76.7874 73.1993 76.209 73.1993 75.4956C73.1993 74.7822 71.5285 74.2039 69.4676 74.2039C67.4066 74.2039 65.7358 74.7822 65.7358 75.4956C65.7358 76.209 67.4066 76.7874 69.4676 76.7874Z" fill="black"/>
<path opacity="0.1" d="M84.6814 76.7874C86.7424 76.7874 88.4132 76.209 88.4132 75.4956C88.4132 74.7822 86.7424 74.2039 84.6814 74.2039C82.6205 74.2039 80.9497 74.7822 80.9497 75.4956C80.9497 76.209 82.6205 76.7874 84.6814 76.7874Z" fill="black"/>
<path opacity="0.1" d="M53.9665 73.0556C60.7043 73.0556 66.1664 71.5777 66.1664 69.7545C66.1664 67.9313 60.7043 66.4534 53.9665 66.4534C47.2287 66.4534 41.7666 67.9313 41.7666 69.7545C41.7666 71.5777 47.2287 73.0556 53.9665 73.0556Z" fill="black"/>
<path d="M107.933 59.7076V0H0V59.7076H49.8042V67.6891C47.3167 67.987 45.6419 68.5431 45.6419 69.1805C45.6419 70.1317 49.369 70.9028 53.9665 70.9028C58.5641 70.9028 62.2911 70.1317 62.2911 69.1805C62.2911 68.5431 60.6163 67.987 58.1288 67.6891V59.7076H107.933Z" fill="#3F3D56"/>
<path d="M102.335 2.0918H5.59753V55.6064H102.335V2.0918Z" fill="#F2F2F2"/>
<path opacity="0.1" d="M102.335 2.15283C102.335 2.15283 62.1476 6.31514 54.8276 22.3903C47.5077 38.4654 5.59753 55.5452 5.59753 55.5452H102.335V2.15283Z" fill="black"/>
<path d="M84.2862 27.7009V31.6693H69.4322V27.9436H69.0016V75.4958H69.4322V66.9828H84.2862V75.4958H84.7168V27.7009H84.2862ZM84.2862 32.0998V38.6458H69.4322V32.0998L84.2862 32.0998ZM69.4322 52.599V46.053H84.2862V52.599H69.4322ZM84.2862 53.0296V59.5755H69.4322V53.0296H84.2862ZM69.4322 45.6224V39.0764H84.2862V45.6224H69.4322ZM69.4322 66.5522V60.0061H84.2862V66.5522H69.4322Z" fill="#2F2E41"/>
<path d="M64.7485 28.6458V29.2406C64.7485 29.2406 64.3237 29.4105 64.3237 30.0903C64.3237 30.7701 63.9838 33.3192 63.9838 33.3192C63.9838 33.3192 64.5786 33.8291 65.0884 33.6591C65.3706 33.5734 65.6313 33.4286 65.8532 33.2343L65.9381 30.6001L65.5983 29.9203V28.7307L64.7485 28.6458Z" fill="#6C63FF"/>
<path d="M81.004 5.02344C81.004 5.02344 79.5262 5.19339 79.5262 5.87316C79.5262 6.55294 78.344 9.10211 78.344 9.10211C78.344 9.10211 80.4129 9.61194 82.1862 9.442C83.9596 9.27205 84.8462 9.01714 84.8462 9.01714L85.1418 6.383L83.9596 5.70322L81.004 5.02344Z" fill="#6C63FF"/>
<path d="M81.1481 10.9716V9.35717C81.1481 9.35717 79.3637 5.78833 80.8083 5.78833C82.2528 5.78833 82.4227 9.01728 82.4227 9.01728V11.3115L81.1481 10.9716Z" fill="#FFB8B8"/>
<path d="M65.8532 27.8811C65.8532 27.8811 64.9185 27.3713 64.7486 27.8811C64.5786 28.391 64.0688 29.4956 64.7486 29.5806C65.4284 29.6656 66.1081 29.0707 66.1081 29.0707L65.8532 27.8811Z" fill="#FFB8B8"/>
<path d="M70.4534 31.3229C70.4534 31.3229 69.9417 31.9986 70.684 38.5911C71.4264 45.1836 70.9986 49.9839 72.4079 49.9181C72.4079 49.9181 72.0401 51.3476 73.2376 51.4003C74.4351 51.4531 74.9822 51.5362 75.0754 51.2059C75.1687 50.8756 75.3146 49.3478 74.9894 49.363C74.9894 49.363 75.0096 49.7966 75.1455 48.052C75.2813 46.3074 74.8967 38.0685 75.3881 36.9592L77.3098 40.8892C77.3098 40.8892 77.3959 42.7321 77.7616 43.5842C78.1273 44.4362 78.9021 49.3976 78.9021 49.3976L78.8291 50.1615C78.8291 50.1615 81.4511 50.4737 81.5393 50.035C81.6274 49.5963 81.5971 48.9458 81.4786 48.7341C81.36 48.5223 81.36 48.5223 81.5566 48.0786C81.6436 47.9118 81.6938 47.7282 81.7038 47.5403C81.7138 47.3524 81.6833 47.1646 81.6144 46.9895C81.4908 46.6693 81.1618 39.6229 81.1618 39.6229C81.1618 39.6229 80.5452 31.069 79.2241 30.6961C77.903 30.3232 70.4534 31.3229 70.4534 31.3229Z" fill="#2F2E41"/>
<path d="M72.7635 50.5535L71.9671 52.1116C71.9671 52.1116 70.5893 51.6871 70.9185 52.9211C72.2411 52.9623 73.5648 52.8823 74.8728 52.6822C74.8728 52.6822 75.425 52.8737 75.5182 52.5434C75.6114 52.2131 75.1788 51.0926 74.8536 51.1077C74.5284 51.1229 72.7635 50.5535 72.7635 50.5535Z" fill="#2F2E41"/>
<path d="M79.0307 49.8263C79.0307 49.8263 78.2546 51.8181 78.5849 51.9113C78.9152 52.0045 81.8624 52.3015 82.0842 52.3998C82.3061 52.498 83.3952 52.5558 83.4733 51.9003C83.5513 51.2448 82.8908 51.0584 82.8908 51.0584C82.8908 51.0584 81.6882 50.8973 81.3123 49.8284C80.9365 48.7595 79.0307 49.8263 79.0307 49.8263Z" fill="#2F2E41"/>
<path d="M71.6717 15.1622C72.9253 15.1622 73.9415 14.146 73.9415 12.8924C73.9415 11.6388 72.9253 10.6226 71.6717 10.6226C70.4181 10.6226 69.4019 11.6388 69.4019 12.8924C69.4019 14.146 70.4181 15.1622 71.6717 15.1622Z" fill="#FFB8B8"/>
<path d="M70.4771 13.9676C70.4771 13.9676 71.0744 17.0736 70.8354 17.671C70.5965 18.2683 74.1804 17.432 74.1804 17.432C74.1804 17.432 73.4637 14.326 73.5831 13.6092C73.7026 12.8924 70.4771 13.9676 70.4771 13.9676Z" fill="#FFB8B8"/>
<path d="M71.6027 10.0889C71.414 10.0547 71.22 10.0633 71.0349 10.114C70.8869 10.1795 70.7506 10.269 70.6314 10.3787C70.4153 10.5509 70.1844 10.7039 69.9415 10.8358C69.7387 10.9231 69.5559 11.0511 69.4047 11.2121C69.3408 11.3 69.2898 11.3965 69.2532 11.4989C69.0204 12.0934 68.9578 12.7411 69.0725 13.3693C69.0854 13.4585 69.1122 13.5452 69.1521 13.6261C69.2762 13.8548 69.5505 13.945 69.7815 14.0649C70.2201 14.2926 70.5526 14.676 70.9123 15.0148C71.0459 15.1482 71.1961 15.2639 71.3591 15.3591C71.8723 15.6389 72.4996 15.5476 73.0757 15.4487C73.1165 15.4486 73.1569 15.4405 73.1946 15.4247C73.2322 15.4089 73.2664 15.3859 73.2951 15.3568C73.3238 15.3278 73.3465 15.2934 73.3618 15.2555C73.3771 15.2177 73.3848 15.1772 73.3844 15.1364L73.8392 13.0911C73.9216 12.7881 73.9608 12.4749 73.9557 12.1609C73.924 11.6644 73.6552 10.9767 73.2908 10.624C72.8663 10.2131 72.1577 10.1477 71.6027 10.0889Z" fill="#2F2E41"/>
<path d="M69.9318 17.8543C69.9318 17.8543 70.1018 16.6647 71.1215 16.5797C71.6981 16.5253 72.2676 16.4114 72.8209 16.2398C72.9059 16.2398 74.0105 16.3248 74.5204 16.8346C74.5204 16.8346 74.8602 17.3444 75.0302 17.0046C75.2001 16.6647 75.2001 16.4947 75.54 16.6647C75.8799 16.8346 75.8799 16.1548 76.4747 16.2398C77.0695 16.3248 78.599 20.1485 78.599 20.1485L78.0892 20.7433C78.0892 20.7433 77.4094 25.3318 78.599 27.2862C79.7886 29.2406 80.2985 31.3649 79.1089 31.7897C77.9192 32.2146 69.592 36.0384 69.9318 33.6591C70.2717 31.2799 70.0168 27.5411 69.6769 27.4562C69.337 27.3712 67.4677 20.6584 67.4677 20.6584C67.5428 20.2322 67.7216 19.831 67.9884 19.4902C68.2551 19.1494 68.6015 18.8794 68.9972 18.704C70.3567 18.1092 69.9318 17.8543 69.9318 17.8543Z" fill="#575A88"/>
<path d="M76.0498 16.5797L76.4747 16.2398C76.4747 16.2398 77.2394 16.2398 77.3244 16.0698C77.4094 15.8999 77.8342 15.8999 78.1741 15.73C78.514 15.56 78.0891 15.3051 78.514 15.1352C78.9389 14.9652 78.9389 15.1352 78.9389 14.7103C78.9389 14.2854 80.0435 13.8606 80.1285 13.3507C80.2134 12.8409 81.0632 10.4617 81.0632 10.4617L82.6776 10.9715L82.2528 14.0305C82.2528 14.0305 82.2528 15.56 81.488 16.5797C80.7233 17.5993 79.0238 20.1485 78.1741 20.2335C77.3244 20.3185 76.0498 16.5797 76.0498 16.5797Z" fill="#575A88"/>
<path d="M67.9775 20.2336L67.4676 20.6585C67.4676 20.6585 67.2977 22.5279 67.2977 22.6129C67.2977 22.6978 67.4676 23.7175 67.2977 23.8025C67.1277 23.8874 66.7879 25.5869 66.8728 25.6719V25.9268L65.6832 27.7962V29.5806L68.4873 27.7962C68.4873 27.7962 70.1018 27.6262 69.8468 26.1817C69.5919 24.7372 67.9775 20.2336 67.9775 20.2336Z" fill="#575A88"/>
<path d="M53.9665 59.7077C54.8385 59.7077 55.5453 59.0008 55.5453 58.1289C55.5453 57.2569 54.8385 56.55 53.9665 56.55C53.0946 56.55 52.3877 57.2569 52.3877 58.1289C52.3877 59.0008 53.0946 59.7077 53.9665 59.7077Z" fill="#6C63FF"/>
</g>
<defs>
<clipPath id="clip0">
<rect width="107.933" height="88" fill="white"/>
</clipPath>
</defs>
</svg>
